<?xml version="1.0" encoding="utf-8"?>
<!-- Generator: Adobe Illustrator 16.0.0, SVG Export Plug-In . SVG Version: 6.00 Build 0)  -->
<!DOCTYPE svg PUBLIC "-//W3C//DTD SVG 1.1//EN" "http://www.w3.org/Graphics/SVG/1.1/DTD/svg11.dtd">
<svg version="1.1" id="Color" xmlns="http://www.w3.org/2000/svg" xmlns:xlink="http://www.w3.org/1999/xlink" x="0px" y="0px"
	 width="144px" height="144px" viewBox="0 0 144 144" enable-background="new 0 0 144 144" xml:space="preserve">
<g>
	<g>
		<path fill="#A71E32" d="M81,86.036c-0.48,0.227-1.13,0.483-1.262,0.539l0.245-1.734c0.145-0.968,0.393-2.537,0.426-2.718
			l-0.991,0.397c-0.007,0.142-0.277,2.043-0.291,2.168l-0.144,1.029c-0.028,0.186-0.269,1.836-0.355,2.257
			c0.321-0.128,2.102-0.772,2.212-0.819L81,86.036z M74.604,87.441l1.963-0.123c0.065,0.123,0.384,0.977,0.536,1.324l0.936-0.713
			c-0.325-0.595-1.765-3.75-2.416-5.023h-0.047c-0.403,0.821-2.133,4.746-2.378,5.286l0.891,0.65
			C74.224,88.519,74.549,87.59,74.604,87.441z M75.576,84.851c0.089,0.241,0.542,1.293,0.667,1.612l-1.32,0.077
			C75.039,86.242,75.455,85.151,75.576,84.851z M82.922,84.957l1.811-0.826c0.04,0.091,0.253,0.982,0.336,1.271l0.979-1.048
			c-0.187-0.477-0.988-3.262-1.354-4.297l-0.033,0.013c-0.528,0.968-2.838,5.525-3.166,6.154l0.691,0.327
			C82.375,86.175,82.843,85.134,82.922,84.957z M84.296,82.019c0.036,0.205,0.251,1.096,0.309,1.373l-1.225,0.555
			C83.544,83.6,84.126,82.362,84.296,82.019z M111.95,121.935c-0.061,0.018-0.123-0.013-0.181-0.089l-3.079-3.9
			c-0.062-0.072-0.075-0.141-0.048-0.197c0.03-0.059,0.087-0.123,0.16-0.197l-0.094-0.123l-1.637,1.278l0.09,0.117
			c0.097-0.053,0.171-0.093,0.23-0.108c0.065-0.018,0.123,0.016,0.184,0.088l3.089,3.9c0.052,0.073,0.065,0.141,0.038,0.196
			c-0.028,0.061-0.085,0.123-0.161,0.195l0.099,0.125l1.633-1.274l-0.095-0.123C112.091,121.88,112.015,121.919,111.95,121.935z
			 M119.808,114.459c-0.046,0.009-0.101,0.005-0.185-0.018l-3.467-0.963c-0.004-0.186-0.131-1.341-0.151-1.627
			c-0.023-0.287-0.033-0.545-0.038-0.781c-0.002-0.239,0.026-0.401,0.085-0.484l-0.114-0.109l-1.403,1.533l0.116,0.105
			c0.036-0.035,0.097-0.061,0.152-0.089c0.066-0.024,0.128-0.001,0.194,0.063c0.021,0.019,0.036,0.088,0.059,0.211
			c0.018,0.116,0.04,0.27,0.061,0.462c0.018,0.186,0.147,2.366,0.158,2.522l-1.735-1.675c-0.072-0.064-0.096-0.134-0.064-0.196
			c0.019-0.064,0.057-0.121,0.097-0.179l-0.11-0.11l-1.396,1.37l0.112,0.111c0.033-0.052,0.087-0.09,0.151-0.106
			c0.061-0.016,0.126,0.011,0.197,0.082l3.571,3.457c0.074,0.066,0.104,0.13,0.083,0.193c-0.009,0.066-0.038,0.12-0.09,0.154
			l0.116,0.111l1.408-1.372l-0.118-0.11c-0.052,0.046-0.112,0.083-0.175,0.11c-0.066,0.028-0.128,0.008-0.197-0.062l-0.772-0.743
			l-0.165-1.424c0.064,0.023,2.072,0.592,2.178,0.624c0.109,0.038,0.166,0.066,0.187,0.081c0.068,0.066,0.09,0.132,0.058,0.208
			c-0.031,0.069-0.069,0.119-0.101,0.157l0.114,0.108l1.427-1.564l-0.113-0.112C119.9,114.43,119.854,114.45,119.808,114.459z
			 M62.775,81.514c-0.369,1.045-1.207,3.853-1.391,4.339l0.958,1.07c0.083-0.289,0.296-1.188,0.341-1.281l1.775,0.86
			c0.075,0.181,0.523,1.245,0.704,1.625l0.688-0.318c-0.313-0.643-2.53-5.292-3.038-6.28L62.775,81.514z M63.145,83.506
			c0.164,0.352,0.721,1.618,0.874,1.97l-1.196-0.583C62.88,84.613,63.104,83.712,63.145,83.506z M70.797,83.144
			c-0.238,0.485-1.264,2.701-1.496,3.146c-0.186-0.392-1.194-2.579-1.487-3.229h-0.047c-0.217,0.649-1.411,4.626-1.522,4.949
			l0.849,0.587c0.099-0.338,0.738-2.682,0.833-3.045h0.018c0.117,0.318,0.804,1.872,1.225,2.747h0.042
			c0.376-0.679,1.283-2.543,1.415-2.792c0.078,0.199,0.798,2.686,0.983,3.285l0.948-0.524c-0.199-0.589-1.374-4.19-1.713-5.124
			H70.797z M59.674,84.583l-0.34-1.805c-0.185-0.963-0.449-2.493-0.468-2.664l-1.131-0.479c0.034,0.152,0.403,2.042,0.426,2.163
			l0.19,1.019c0.039,0.182,0.363,1.91,0.403,2.302c0.37,0.15,2.064,0.976,2.191,1.029l-0.215-1.11
			C60.194,84.838,59.83,84.649,59.674,84.583z M49.811,76.273c-0.044,0.598-0.175,2.607-0.208,2.967
			c-0.361-0.571-2.064-3.41-2.448-4.022l-0.038-0.012c0.016,0.889,0.226,4.431,0.242,4.99l1.03,0.914
			c-0.042-0.586-0.239-3.015-0.246-3.207c0.202,0.319,1.666,2.669,2.229,3.538l0.031,0.015c0.081-0.787,0.163-2.229,0.163-2.526
			l0.005,0.004c0.225,0.424,1.673,3.41,1.875,3.812l0.676-0.137c-0.206-0.385-2.85-5.537-3.275-6.318L49.811,76.273z M55.495,77.579
			l-2.43-1.008l0.234,1.03l2.44,1.017L55.495,77.579z M54.546,78.658c-0.289,0.984-0.905,3.621-1.052,4.075l1.012,0.958
			c0.055-0.275,0.208-1.116,0.237-1.199l1.795,0.728c0.087,0.163,0.602,1.131,0.8,1.479l0.653-0.322
			c-0.355-0.585-2.847-4.807-3.405-5.705L54.546,78.658z M55.054,80.49c0.172,0.325,0.811,1.474,0.988,1.791l-1.209-0.49
			C54.871,81.528,55.019,80.689,55.054,80.49z M107.211,125.409c-0.049,0-0.087-0.017-0.123-0.043
			c-0.183-0.156-3.816-3.031-3.982-3.169c-0.173-0.139-0.266-0.229-0.277-0.254c-0.04-0.065-0.022-0.13,0.052-0.18l-0.082-0.137
			l-1.882,1.12l0.08,0.135c0.086-0.038,0.142-0.025,0.185,0.045c0.015,0.038,0.071,0.232,0.141,0.568
			c0.066,0.329,0.819,4.117,0.952,4.748c0.008,0.046,0,0.09-0.025,0.126c-0.019,0.044-0.051,0.071-0.087,0.096l0.08,0.134
			l1.366-0.756l-0.083-0.132c-0.016,0.008-0.043,0.021-0.078,0.031c-0.034,0.009-0.065-0.01-0.097-0.062
			c-0.023-0.034-0.034-0.085-0.054-0.165c-0.007-0.076-0.126-0.656-0.141-0.728l2.091-1.249c0.049,0.04,0.528,0.421,0.589,0.473
			c0.062,0.05,0.098,0.094,0.114,0.122c0.035,0.052,0.036,0.091,0.01,0.115c-0.026,0.027-0.048,0.044-0.062,0.058l0.074,0.133
			l1.448-0.933l-0.082-0.136C107.299,125.393,107.259,125.406,107.211,125.409z M102.958,125.801l-0.439-2.408l1.931,1.521
			L102.958,125.801z M130.326,94.993c-0.277-0.301-0.654-0.556-1.135-0.766c-0.478-0.206-0.918-0.307-1.328-0.303
			c-0.411,0.005-0.781,0.081-1.11,0.233c-0.329,0.15-0.604,0.354-0.842,0.612c-0.242,0.259-0.424,0.54-0.556,0.84
			c-0.129,0.303-0.208,0.628-0.239,0.975c-0.03,0.356,0.012,0.7,0.128,1.043c0.111,0.343,0.309,0.663,0.589,0.967
			c0.281,0.306,0.649,0.561,1.128,0.764c0.479,0.213,0.918,0.31,1.334,0.307c0.402-0.008,0.775-0.086,1.095-0.237
			c0.32-0.151,0.594-0.364,0.826-0.624c0.227-0.26,0.407-0.546,0.538-0.85c0.134-0.293,0.219-0.619,0.257-0.966
			c0.034-0.348,0-0.691-0.11-1.032C130.786,95.618,130.595,95.293,130.326,94.993z M129.522,97.418
			c-0.076,0.183-0.188,0.34-0.323,0.47c-0.139,0.131-0.299,0.229-0.474,0.296c-0.178,0.064-0.374,0.098-0.571,0.087
			c-0.211-0.013-0.425-0.065-0.651-0.165c-0.224-0.097-0.412-0.216-0.558-0.36c-0.152-0.145-0.257-0.303-0.327-0.476
			c-0.073-0.179-0.11-0.36-0.11-0.553c0.006-0.188,0.046-0.376,0.117-0.555c0.083-0.184,0.194-0.339,0.331-0.466
			c0.135-0.128,0.293-0.225,0.468-0.293c0.179-0.066,0.372-0.097,0.578-0.086c0.203,0.008,0.424,0.059,0.645,0.162
			c0.229,0.096,0.414,0.217,0.561,0.36c0.147,0.141,0.257,0.305,0.326,0.481c0.076,0.179,0.107,0.357,0.107,0.539
			C129.641,97.049,129.603,97.236,129.522,97.418z M71.999,0C32.297,0,0,32.3,0,72c0,39.701,32.297,72,71.999,72
			C111.7,144,144,111.701,144,72C144,32.3,111.7,0,71.999,0z M71.999,141.508c-38.325,0-69.507-31.181-69.507-69.508
			c0-38.326,31.182-69.508,69.507-69.508c38.329,0,69.509,31.183,69.509,69.508C141.508,110.327,110.327,141.508,71.999,141.508z
			 M121.517,42.22c-0.05-0.043-0.094-0.095-0.121-0.146l-0.182,0.094l1.175,2.047l0.181-0.097c-0.015-0.025-0.032-0.065-0.04-0.114
			c-0.015-0.051,0.008-0.097,0.082-0.131c0.04-0.021,0.107-0.036,0.219-0.044c0.101-0.008,0.932-0.078,1.011-0.097l1.653,3.17
			c-0.055,0.064-0.613,0.751-0.687,0.831c-0.065,0.076-0.121,0.122-0.159,0.141c-0.074,0.038-0.121,0.035-0.154-0.002
			c-0.031-0.038-0.062-0.078-0.076-0.102l-0.175,0.095l1.058,2.398l0.187-0.091c-0.033-0.055-0.042-0.114-0.048-0.187
			c-0.004-0.07,0.015-0.122,0.051-0.167c0.213-0.231,4.3-5.257,4.484-5.472c0.185-0.219,0.297-0.346,0.329-0.361
			c0.089-0.046,0.167-0.013,0.245,0.101l0.178-0.093l-1.453-2.842l-0.179,0.093c0.044,0.126,0.026,0.209-0.059,0.259
			c-0.05,0.027-0.293,0.061-0.741,0.106c-0.44,0.044-5.762,0.568-6.604,0.661C121.631,42.271,121.573,42.26,121.517,42.22z
			 M128.364,43.355l-2.03,2.519l-1.186-2.266L128.364,43.355z M134.598,83.13c-0.183-0.309-0.436-0.582-0.772-0.82
			c-0.329-0.239-0.755-0.409-1.264-0.512c-0.506-0.101-0.96-0.104-1.365-0.016c-0.396,0.088-0.738,0.244-1.034,0.463
			c-0.284,0.215-0.521,0.473-0.698,0.775c-0.175,0.306-0.295,0.615-0.362,0.938c-0.062,0.321-0.069,0.657-0.025,1.006
			c0.043,0.346,0.164,0.673,0.346,0.988c0.186,0.31,0.442,0.586,0.773,0.823c0.336,0.235,0.755,0.41,1.262,0.511
			c0.514,0.101,0.974,0.11,1.369,0.02c0.393-0.096,0.737-0.252,1.021-0.466c0.286-0.217,0.514-0.479,0.681-0.783
			c0.166-0.304,0.284-0.617,0.351-0.939c0.061-0.322,0.076-0.661,0.038-1.003C134.882,83.77,134.768,83.44,134.598,83.13z
			 M133.556,84.851c-0.04,0.195-0.11,0.366-0.215,0.521c-0.108,0.161-0.247,0.289-0.399,0.394c-0.162,0.105-0.342,0.171-0.547,0.206
			c-0.204,0.036-0.424,0.026-0.665-0.02c-0.24-0.05-0.447-0.128-0.622-0.239c-0.175-0.11-0.315-0.242-0.422-0.401
			c-0.11-0.156-0.179-0.329-0.219-0.509c-0.043-0.188-0.043-0.378,0-0.572c0.04-0.195,0.112-0.372,0.221-0.526
			c0.104-0.15,0.238-0.278,0.393-0.387c0.164-0.1,0.343-0.171,0.546-0.202c0.204-0.033,0.43-0.027,0.663,0.021
			c0.246,0.049,0.455,0.127,0.63,0.239c0.171,0.107,0.313,0.243,0.422,0.398c0.104,0.158,0.175,0.325,0.215,0.508
			C133.596,84.462,133.596,84.652,133.556,84.851z M135.213,57.521c0.026,0.152,0.026,0.273,0.016,0.365
			c-0.018,0.095-0.085,0.154-0.208,0.177l-6.35,1.338c-0.123,0.026-0.208,0-0.261-0.08c-0.046-0.082-0.101-0.19-0.143-0.338
			l-0.196,0.04l0.616,2.994l0.201-0.044c-0.024-0.15-0.024-0.276-0.013-0.367c0.017-0.092,0.086-0.154,0.211-0.177l6.339-1.338
			c0.12-0.023,0.21,0,0.26,0.082c0.056,0.076,0.1,0.189,0.146,0.336l0.194-0.04l-0.604-2.992L135.213,57.521z M88.829,80.897h0.01
			c0.024,0.287,0.196,1.689,0.338,2.456l0.033-0.014c0.526-0.855,1.862-3.157,2.053-3.463c0.009,0.183-0.038,2.548-0.038,3.118
			l0.998-0.902c-0.016-0.541-0.06-3.997-0.1-4.86l-0.041,0.01c-0.343,0.603-1.896,3.387-2.229,3.942
			c-0.056-0.348-0.327-2.388-0.413-2.968l-0.034,0.014c-0.382,0.768-2.759,5.897-2.934,6.276l0.698,0.123
			C87.349,84.236,88.639,81.323,88.829,80.897z M133.037,53.947c-0.398,0.116-0.721,0.31-0.97,0.583
			c-0.241,0.272-0.307,0.61-0.194,1.013c0.088,0.304,0.265,0.54,0.532,0.711c0.265,0.175,0.576,0.206,0.93,0.104
			c0.426-0.118,0.691-0.333,0.808-0.635c0.108-0.309,0.12-0.642,0.02-1.001c0.37-0.037,0.695,0.038,0.984,0.22
			c0.287,0.181,0.528,0.397,0.729,0.646l0.487-0.135c-0.185-0.245-0.387-0.483-0.618-0.717c-0.237-0.226-0.498-0.417-0.776-0.564
			c-0.282-0.146-0.58-0.25-0.904-0.299C133.746,53.822,133.401,53.843,133.037,53.947z M132.466,49.437l-6.096,2.205
			c-0.115,0.042-0.206,0.029-0.26-0.043c-0.066-0.07-0.13-0.177-0.188-0.316l-0.197,0.068l1.028,2.88l0.192-0.07
			c-0.042-0.146-0.065-0.27-0.065-0.363c0.003-0.094,0.065-0.162,0.187-0.204l6.087-2.205c0.116-0.042,0.208-0.028,0.264,0.04
			c0.064,0.072,0.129,0.181,0.19,0.319l0.19-0.068l-1.023-2.878l-0.19,0.067c0.044,0.152,0.062,0.27,0.062,0.365
			C132.639,49.327,132.58,49.397,132.466,49.437z M69.803,114.611c-0.091-0.045-0.182-0.074-0.283-0.095
			c-0.1-0.017-0.187-0.026-0.259-0.026c-0.072,0-0.158,0.01-0.26,0.026c-0.099,0.021-0.194,0.05-0.282,0.095
			c-0.091,0.04-0.164,0.099-0.226,0.173c-0.065,0.074-0.091,0.174-0.091,0.288s0.026,0.213,0.091,0.289
			c0.062,0.073,0.135,0.137,0.226,0.177c0.087,0.041,0.183,0.071,0.282,0.088c0.103,0.018,0.188,0.029,0.26,0.029
			c0.072,0,0.159-0.012,0.259-0.029c0.101-0.017,0.191-0.047,0.283-0.088c0.094-0.04,0.167-0.104,0.23-0.177
			c0.062-0.076,0.092-0.175,0.092-0.289s-0.03-0.214-0.092-0.288C69.97,114.71,69.896,114.651,69.803,114.611z M124.021,109.214
			c-0.045,0.019-0.085,0.026-0.13,0.009c-0.228-0.081-4.625-1.463-4.838-1.535c-0.204-0.07-0.32-0.119-0.345-0.135
			c-0.058-0.05-0.066-0.116-0.016-0.188l-0.127-0.099l-1.361,1.716l0.123,0.103c0.064-0.069,0.134-0.079,0.192-0.033
			c0.031,0.033,0.148,0.197,0.324,0.482c0.186,0.289,2.236,3.554,2.586,4.098c0.027,0.038,0.034,0.082,0.027,0.128
			c-0.005,0.047-0.027,0.091-0.05,0.119l0.123,0.101l1.008-1.193l-0.125-0.097c-0.016,0.021-0.036,0.038-0.062,0.057
			c-0.03,0.024-0.066,0.018-0.12-0.019c-0.024-0.027-0.055-0.072-0.095-0.139c-0.045-0.067-0.357-0.568-0.396-0.63l1.504-1.911
			c0.059,0.018,0.631,0.203,0.707,0.228c0.068,0.028,0.122,0.052,0.148,0.074c0.049,0.042,0.064,0.07,0.049,0.105
			c-0.017,0.033-0.028,0.058-0.042,0.073l0.128,0.101l1.016-1.396l-0.128-0.093C124.1,109.172,124.064,109.198,124.021,109.214z
			 M120.211,111.108l-1.275-2.094l2.349,0.722L120.211,111.108z M94.254,80.374l1.822-0.836c0.021,0.097,0.052,1.062,0.065,1.38
			l1.105-1.104c-0.077-0.521-0.308-3.551-0.446-4.678l-0.04,0.017c-0.663,1.028-3.645,5.879-4.058,6.553l0.579,0.367
			C93.52,81.681,94.146,80.564,94.254,80.374z M96.065,77.242c0,0.221,0.024,1.185,0.024,1.486l-1.226,0.572
			C95.082,78.934,95.848,77.609,96.065,77.242z M127.319,104.109c-0.043,0.033-0.112,0.022-0.192-0.027l-1.391-0.835l0.601-1.015
			c0.134-0.225,0.243-0.452,0.321-0.682c0.077-0.236,0.104-0.466,0.077-0.694c-0.032-0.229-0.117-0.452-0.277-0.677
			c-0.15-0.217-0.384-0.428-0.706-0.621c-0.333-0.2-0.636-0.31-0.897-0.335c-0.265-0.028-0.5,0-0.715,0.086
			c-0.212,0.083-0.405,0.215-0.574,0.394c-0.169,0.182-0.315,0.384-0.448,0.604l-1.415,2.369l0.135,0.082
			c0.016-0.017,0.052-0.035,0.094-0.062c0.045-0.022,0.112-0.013,0.199,0.036l4.271,2.559c0.085,0.05,0.127,0.097,0.127,0.152
			c0,0.051-0.008,0.088-0.008,0.107l0.138,0.082l0.93-1.551l-0.136-0.084C127.42,104.042,127.373,104.082,127.319,104.109z
			 M125.301,101.828l-0.518,0.86l-1.334-0.798l0.555-0.928c0.141-0.228,0.286-0.361,0.452-0.394
			c0.158-0.032,0.356,0.017,0.596,0.162c0.245,0.143,0.378,0.296,0.42,0.468C125.508,101.367,125.452,101.58,125.301,101.828z
			 M133.63,89.081c-0.042,0.051-0.104,0.058-0.197,0.031l-4.735-1.529c-0.086-0.027-0.135-0.077-0.146-0.138
			c-0.003-0.058-0.003-0.129,0.012-0.212l-0.148-0.049l-0.511,1.766l0.146,0.05c0.038-0.082,0.074-0.139,0.116-0.183
			c0.043-0.048,0.108-0.053,0.206-0.025l2.455,0.797c-0.355,0.118-2.547,0.864-2.739,0.93c-0.19,0.062-0.264,0.082-0.306,0.08
			c-0.097-0.014-0.135-0.07-0.148-0.124c0-0.053-0.012-0.104,0-0.153l-0.156-0.05l-0.826,2.359l0.146,0.045
			c0.036-0.072,0.072-0.132,0.117-0.173c0.042-0.046,0.105-0.056,0.197-0.024l4.737,1.527c0.099,0.029,0.145,0.072,0.154,0.13
			c0.007,0.059,0.007,0.123-0.008,0.194l0.148,0.049l0.604-1.688l-0.154-0.05c-0.026,0.074-0.062,0.129-0.108,0.171
			s-0.11,0.048-0.198,0.014l-3.26-1.051l-0.021-0.028c0.504-0.147,2.319-0.779,2.695-0.916c0.374-0.132,0.696-0.24,0.947-0.32
			c0.251-0.082,0.41-0.106,0.486-0.083c0.073,0.024,0.109,0.076,0.103,0.153c-0.004,0.068-0.02,0.136-0.036,0.19l0.15,0.042
			l0.549-1.863l-0.15-0.047C133.711,88.98,133.673,89.042,133.63,89.081z M101.026,128.991c-0.063-0.007-0.112-0.05-0.155-0.136
			l-2.077-4.52c-0.036-0.087-0.036-0.154,0-0.2c0.038-0.05,0.098-0.093,0.172-0.135l-0.066-0.144l-1.652,0.816l0.062,0.145
			c0.083-0.03,0.15-0.041,0.21-0.041c0.064,0,0.114,0.043,0.157,0.137l1.081,2.345c-0.328-0.177-2.363-1.283-2.544-1.387
			c-0.165-0.098-0.241-0.136-0.265-0.172c-0.048-0.08-0.043-0.144-0.012-0.192c0.04-0.038,0.078-0.076,0.12-0.104l-0.066-0.146
			l-2.296,0.983l0.07,0.145c0.07-0.024,0.137-0.035,0.197-0.035c0.06,0,0.109,0.045,0.152,0.134l2.073,4.522
			c0.04,0.083,0.04,0.149,0.011,0.195c-0.036,0.049-0.086,0.089-0.149,0.123l0.066,0.147l1.65-0.7l-0.065-0.148
			c-0.069,0.03-0.134,0.038-0.197,0.038c-0.059-0.004-0.106-0.047-0.145-0.132l-1.431-3.112l0.009-0.035
			c0.445,0.274,2.146,1.18,2.496,1.365c0.354,0.188,0.641,0.348,0.88,0.478c0.221,0.131,0.352,0.233,0.385,0.302
			c0.036,0.074,0.029,0.132-0.036,0.177c-0.062,0.048-0.118,0.081-0.166,0.104l0.068,0.146l1.737-0.864l-0.059-0.147
			C101.157,128.974,101.084,128.991,101.026,128.991z M80.177,14.149c0.333,0.376,0.725,0.671,1.18,0.893
			c0.455,0.224,0.92,0.382,1.393,0.474c0.475,0.089,0.962,0.11,1.466,0.07c0.507-0.045,0.981-0.18,1.423-0.407
			c0.442-0.228,0.834-0.553,1.171-0.979c0.326-0.428,0.557-0.975,0.677-1.641c0.126-0.654,0.114-1.245-0.04-1.766
			c-0.151-0.524-0.392-0.975-0.718-1.353c-0.339-0.378-0.726-0.687-1.179-0.924c-0.451-0.232-0.915-0.396-1.39-0.484
			c-0.472-0.086-0.962-0.106-1.468-0.054c-0.509,0.055-0.986,0.196-1.429,0.43c-0.447,0.232-0.837,0.562-1.167,0.996
			c-0.335,0.433-0.563,0.975-0.685,1.634c-0.123,0.663-0.116,1.255,0.04,1.773C79.606,13.332,79.846,13.776,80.177,14.149z
			 M81.382,11.406c0.056-0.312,0.167-0.58,0.315-0.806c0.154-0.225,0.343-0.403,0.566-0.541c0.219-0.139,0.47-0.228,0.736-0.273
			c0.271-0.048,0.548-0.048,0.826,0.009c0.289,0.054,0.558,0.156,0.778,0.291c0.237,0.143,0.429,0.317,0.587,0.525
			c0.159,0.209,0.264,0.446,0.329,0.71c0.053,0.265,0.053,0.551,0,0.865c-0.061,0.31-0.166,0.576-0.315,0.802
			c-0.156,0.223-0.341,0.407-0.569,0.542c-0.222,0.134-0.465,0.228-0.729,0.273c-0.264,0.05-0.542,0.05-0.837-0.007
			c-0.278-0.054-0.541-0.152-0.768-0.295c-0.231-0.138-0.433-0.317-0.589-0.524c-0.161-0.207-0.27-0.443-0.327-0.707
			C81.319,12.004,81.319,11.718,81.382,11.406z M16.146,91.153c0.173-0.135,0.274-0.205,0.299-0.213
			c0.074-0.022,0.127,0.008,0.166,0.09l0.15-0.05l-0.679-2.081l-0.146,0.044c0.021,0.091-0.008,0.148-0.078,0.173
			c-0.046,0.011-0.234,0.016-0.572,0.007c-0.344-0.007-4.214-0.123-4.858-0.133c-0.046,0-0.084-0.017-0.116-0.049
			c-0.036-0.033-0.061-0.071-0.072-0.112l-0.151,0.05l0.438,1.493l0.148-0.047c-0.009-0.018-0.009-0.052-0.015-0.085
			c-0.004-0.031,0.028-0.064,0.087-0.079c0.032-0.011,0.087-0.018,0.163-0.011c0.082,0.001,0.677,0.022,0.751,0.025l0.752,2.317
			c-0.055,0.035-0.534,0.42-0.595,0.468c-0.061,0.044-0.112,0.073-0.146,0.084c-0.057,0.022-0.093,0.015-0.116-0.018
			c-0.019-0.028-0.032-0.056-0.036-0.074l-0.148,0.048l0.576,1.618l0.154-0.05c-0.017-0.035-0.017-0.082-0.012-0.126
			c0.012-0.046,0.031-0.084,0.067-0.11C12.355,94.191,15.978,91.286,16.146,91.153z M15.113,90.312l-1.91,1.547l-0.54-1.651
			L15.113,90.312z M13.372,61.218c0.422-0.023,0.806-0.137,1.163-0.333c0.356-0.202,0.666-0.502,0.941-0.914
			c0.27-0.409,0.48-0.947,0.644-1.606c0.162-0.66,0.215-1.231,0.167-1.722c-0.054-0.491-0.192-0.901-0.411-1.241
			c-0.226-0.342-0.523-0.621-0.878-0.836c-0.365-0.211-0.759-0.375-1.203-0.481l-3.522-0.874c-0.122-0.028-0.186-0.093-0.204-0.185
			c-0.007-0.093-0.001-0.199,0.012-0.321l-0.194-0.049L9.12,55.333l0.196,0.051c0.021-0.051,0.053-0.096,0.105-0.15
			c0.047-0.049,0.129-0.064,0.254-0.032l4.015,0.976c0.414,0.104,0.678,0.315,0.796,0.635c0.112,0.321,0.114,0.703,0.004,1.155
			c-0.112,0.447-0.289,0.791-0.54,1.021c-0.245,0.235-0.581,0.296-0.998,0.197l-4.016-0.986c-0.122-0.028-0.198-0.08-0.211-0.146
			c-0.019-0.063-0.026-0.125-0.022-0.176l-0.204-0.05l-0.536,2.716l0.198,0.051c0.042-0.116,0.089-0.211,0.142-0.289
			c0.054-0.078,0.141-0.103,0.259-0.074l3.524,0.861C12.528,61.199,12.952,61.238,13.372,61.218z M75.151,115.125
			c-0.078-0.112-0.177-0.203-0.298-0.273c-0.13-0.067-0.273-0.102-0.448-0.102c-0.175,0-0.323,0.034-0.444,0.102
			c-0.124,0.07-0.228,0.161-0.304,0.273c-0.076,0.11-0.133,0.241-0.173,0.38c-0.036,0.143-0.056,0.285-0.056,0.432
			c0,0.148,0.02,0.293,0.056,0.433c0.04,0.139,0.097,0.271,0.173,0.381c0.076,0.114,0.181,0.205,0.304,0.273
			c0.121,0.064,0.269,0.103,0.444,0.103c0.174,0,0.318-0.038,0.448-0.103c0.121-0.068,0.22-0.159,0.298-0.273
			c0.082-0.11,0.141-0.242,0.175-0.381c0.04-0.14,0.058-0.284,0.058-0.433c0-0.146-0.018-0.289-0.058-0.432
			C75.292,115.366,75.233,115.235,75.151,115.125z M70.846,130.536c0.051,0.009,0.107,0.03,0.169,0.059
			c0.057,0.028,0.089,0.089,0.082,0.186c0,0.025-0.036,0.084-0.112,0.177c-0.076,0.094-0.182,0.214-0.312,0.354
			c-0.123,0.139-1.652,1.704-1.757,1.813l0.073-2.411c0.002-0.097,0.036-0.154,0.101-0.179c0.065-0.025,0.128-0.043,0.202-0.046
			l0.005-0.16l-1.954-0.117l-0.005,0.159c0.061-0.009,0.123,0.008,0.174,0.042c0.054,0.04,0.083,0.104,0.081,0.204l-0.164,4.981
			c-0.006,0.097-0.033,0.163-0.091,0.193c-0.059,0.032-0.122,0.046-0.184,0.032l-0.002,0.157l1.964,0.112l0.005-0.157
			c-0.072-0.009-0.137-0.03-0.193-0.059c-0.064-0.023-0.099-0.089-0.091-0.187l0.032-1.076l0.949-1.069
			c0.027,0.066,0.951,1.929,0.996,2.028c0.043,0.107,0.07,0.168,0.07,0.199c0,0.097-0.045,0.152-0.117,0.177
			c-0.073,0.021-0.136,0.031-0.187,0.031l-0.006,0.156l2.123,0.023l0.006-0.155c-0.045-0.016-0.092-0.031-0.135-0.056
			c-0.037-0.033-0.069-0.08-0.101-0.15l-1.622-3.229c0.139-0.129,0.909-0.999,1.11-1.209c0.19-0.207,0.38-0.395,0.548-0.547
			c0.175-0.166,0.312-0.253,0.418-0.269l0.013-0.155l-2.087-0.012V130.536z M11.177,87.299c0.321,0.018,0.653-0.008,0.998-0.08
			l2.893-0.61c0.091-0.02,0.154-0.004,0.196,0.05c0.036,0.054,0.068,0.118,0.091,0.197l0.16-0.034L15.06,84.99l-0.152,0.029
			c-0.002,0.042-0.014,0.082-0.031,0.123c-0.013,0.05-0.076,0.083-0.167,0.104l-3.128,0.655c-0.327,0.069-0.578,0.025-0.752-0.133
			c-0.185-0.161-0.304-0.397-0.375-0.705c-0.061-0.311-0.047-0.574,0.057-0.789c0.1-0.216,0.318-0.361,0.643-0.429l3.123-0.658
			c0.095-0.02,0.158-0.008,0.196,0.025c0.032,0.038,0.055,0.069,0.07,0.103l0.156-0.033l-0.331-1.867l-0.15,0.029
			c0.003,0.085,0.003,0.16-0.008,0.221s-0.068,0.104-0.164,0.126l-2.891,0.611c-0.344,0.074-0.654,0.185-0.939,0.327
			c-0.291,0.147-0.521,0.336-0.713,0.572c-0.184,0.229-0.308,0.516-0.371,0.85c-0.057,0.335-0.036,0.727,0.052,1.18
			c0.101,0.456,0.237,0.821,0.427,1.104c0.19,0.282,0.418,0.49,0.683,0.633C10.562,87.204,10.855,87.278,11.177,87.299z
			 M16.12,39.24c0.072-0.057,0.162-0.053,0.27,0.011l5.546,3.364c0.103,0.061,0.152,0.139,0.137,0.228
			c-0.017,0.095-0.061,0.211-0.133,0.35l0.18,0.104l1.591-2.604l-0.171-0.108c-0.093,0.125-0.177,0.217-0.25,0.273
			c-0.072,0.057-0.164,0.056-0.272-0.009l-5.546-3.362c-0.104-0.066-0.15-0.143-0.137-0.238c0.019-0.089,0.063-0.207,0.131-0.344
			l-0.173-0.104L15.7,39.405l0.177,0.108C15.962,39.386,16.044,39.297,16.12,39.24z M24.757,27.297l0.137,0.146
			c0.099-0.068,0.181-0.118,0.264-0.153c0.091-0.035,0.181-0.004,0.26,0.083l4.391,4.722c0.083,0.089,0.106,0.175,0.062,0.26
			c-0.036,0.082-0.091,0.167-0.173,0.254l0.141,0.149l4.961-4.758c0.095-0.083,0.166-0.135,0.224-0.156
			c0.053-0.021,0.158,0.004,0.3,0.086l0.109-0.106l-1.473-1.593l-0.133,0.127c0.143,0.249,0.143,0.439-0.006,0.583l-3.205,2.984
			l-1.137-1.226l2.113-1.975c0.052-0.042,0.111-0.064,0.194-0.068c0.076-0.006,0.169,0.049,0.279,0.167l0.133-0.127l-1.501-1.612
			l-0.133,0.127c0.106,0.118,0.156,0.21,0.146,0.292c-0.013,0.082-0.04,0.139-0.086,0.181l-2.118,1.975l-0.94-1.01l3.289-3.066
			c0.049-0.045,0.108-0.068,0.189-0.072c0.076-0.004,0.181,0.055,0.29,0.18l0.135-0.127l-1.545-1.663l-0.137,0.127
			c0.105,0.114,0.158,0.211,0.139,0.285c-0.014,0.078-0.046,0.135-0.087,0.177L24.757,27.297z M18.733,35.055
			c0.027-0.025,0.074-0.054,0.15-0.067c0.061-0.007,0.234,0.031,0.576,0.145c0.333,0.118,5.138,1.902,5.453,2.024
			c0.325,0.127,0.524,0.213,0.538,0.218c0.068,0.059,0.101,0.127,0.097,0.219c-0.01,0.085-0.03,0.152-0.087,0.204l0.164,0.127
			l2.003-2.561l-0.162-0.125c-0.036,0.066-0.095,0.11-0.184,0.132c-0.082,0.025-0.16,0.01-0.229-0.043
			c-0.017-0.015-0.148-0.177-0.319-0.445c-0.173-0.27-3.273-5.314-3.349-5.417c-0.023-0.034-0.074-0.127-0.064-0.198
			c0.003-0.068,0.036-0.129,0.076-0.201l-0.158-0.124l-1.641,1.938l0.166,0.128c0.03-0.042,0.076-0.097,0.144-0.16
			c0.065-0.068,0.131-0.07,0.208-0.017c0.029,0.025,0.129,0.188,0.31,0.477c0.183,0.297,1.901,3.132,2.1,3.457l-0.017,0.025
			c-0.071-0.032-3.745-1.363-3.942-1.439c-0.197-0.08-0.306-0.122-0.321-0.139c-0.076-0.057-0.083-0.123-0.034-0.209
			c0.055-0.083,0.097-0.152,0.133-0.2l-0.158-0.125l-1.692,2.336l0.16,0.125C18.677,35.109,18.701,35.079,18.733,35.055z
			 M45.69,128.154l0.765-1.521l-0.109-0.054c-0.057,0.104-0.114,0.168-0.167,0.186c-0.055,0.014-0.102,0.014-0.135-0.005
			l-1.762-0.895l0.481-0.943l2.727,1.386c0.04,0.016,0.071,0.061,0.087,0.112c0.021,0.052,0,0.139-0.061,0.251l0.116,0.061
			l0.794-1.567l-0.112-0.054c-0.058,0.103-0.107,0.167-0.164,0.175c-0.056,0.013-0.098,0.009-0.137-0.008l-4.241-2.15l-0.074,0.139
			c0.069,0.045,0.116,0.09,0.156,0.138c0.047,0.053,0.047,0.124-0.002,0.207l-2.252,4.442c-0.045,0.084-0.095,0.127-0.161,0.123
			c-0.065-0.003-0.133-0.019-0.202-0.043l-0.072,0.139l4.163,2.113c0.078,0.036,0.123,0.072,0.154,0.103
			c0.026,0.036,0.026,0.117,0.005,0.242l0.092,0.043l0.775-1.53l-0.11-0.062c-0.133,0.18-0.262,0.233-0.388,0.171l-2.662-1.344
			l0.588-1.161l1.755,0.896c0.042,0.019,0.072,0.055,0.09,0.113c0.02,0.052,0.002,0.133-0.054,0.244L45.69,128.154z M32.856,118.24
			c0.188-0.012,1.334-0.196,1.619-0.232c0.285-0.038,0.543-0.065,0.774-0.078c0.239-0.017,0.405,0.004,0.496,0.06l0.101-0.116
			l-1.601-1.325l-0.103,0.121c0.032,0.045,0.066,0.092,0.099,0.155c0.021,0.053,0.006,0.118-0.053,0.196
			c-0.022,0.019-0.089,0.035-0.208,0.064c-0.118,0.021-0.271,0.049-0.458,0.077c-0.184,0.028-2.355,0.274-2.513,0.291l1.587-1.818
			c0.059-0.072,0.124-0.099,0.19-0.076c0.063,0.024,0.127,0.051,0.188,0.091l0.099-0.12l-1.439-1.328l-0.106,0.121
			c0.055,0.033,0.091,0.083,0.11,0.144c0.021,0.065-0.004,0.137-0.069,0.206l-3.275,3.757c-0.064,0.069-0.127,0.103-0.192,0.095
			c-0.066-0.012-0.12-0.042-0.164-0.091l-0.103,0.117l1.453,1.331l0.106-0.122c-0.049-0.043-0.087-0.106-0.114-0.168
			c-0.03-0.061-0.021-0.13,0.046-0.199l0.705-0.812l1.412-0.229c-0.022,0.064-0.485,2.091-0.513,2.205
			c-0.024,0.103-0.053,0.167-0.07,0.189c-0.064,0.07-0.129,0.092-0.205,0.063c-0.07-0.025-0.125-0.058-0.16-0.09l-0.103,0.114
			l1.629,1.364l0.103-0.119c-0.033-0.036-0.052-0.084-0.066-0.126c-0.014-0.047-0.008-0.106,0.015-0.184L32.856,118.24z
			 M40.271,121.001c-0.057,0.011-0.103-0.005-0.135-0.027l-3.866-2.775l-0.095,0.135c0.057,0.048,0.104,0.103,0.131,0.16
			c0.036,0.054,0.03,0.119-0.032,0.201l-2.9,4.053c-0.052,0.079-0.112,0.109-0.181,0.099c-0.062-0.012-0.129-0.036-0.194-0.074
			l-0.093,0.128l3.801,2.721c0.072,0.051,0.11,0.09,0.137,0.13c0.017,0.033,0.006,0.113-0.035,0.229l0.082,0.067l1.005-1.405
			l-0.101-0.074c-0.163,0.156-0.298,0.192-0.414,0.106l-2.418-1.731l0.748-1.053l1.605,1.15c0.035,0.022,0.057,0.063,0.067,0.115
			c0.019,0.064-0.019,0.139-0.087,0.237l0.106,0.073l0.986-1.388l-0.101-0.069c-0.072,0.098-0.135,0.147-0.192,0.158
			c-0.055,0.005-0.101-0.004-0.135-0.026l-1.602-1.145l0.616-0.863l2.49,1.779c0.035,0.031,0.062,0.064,0.067,0.125
			c0.011,0.058-0.021,0.14-0.099,0.244l0.105,0.072l1.022-1.43l-0.102-0.073C40.389,120.949,40.328,120.996,40.271,121.001z
			 M33.018,20.282c0.082-0.009,0.154,0.034,0.223,0.141l3.636,5.364c0.067,0.103,0.082,0.188,0.04,0.258
			c-0.038,0.069-0.082,0.125-0.127,0.166l0.116,0.171l2.143-1.559l-0.114-0.167c-0.099,0.053-0.19,0.089-0.275,0.103
			c-0.083,0.015-0.156-0.024-0.23-0.131l-1.294-1.914l1.229-0.833c0.057,0.042,1.721,0.942,1.943,1.07
			c0.215,0.131,0.336,0.213,0.367,0.264c0.053,0.073,0.053,0.143-0.009,0.217c-0.054,0.072-0.112,0.125-0.173,0.171l0.118,0.165
			l2.735-1.708l-0.12-0.167c-0.091,0.062-0.195,0.095-0.312,0.089c-0.123-0.002-0.228-0.025-0.325-0.068l-2.585-1.184
			c0.294-0.447,0.476-0.908,0.544-1.384c0.07-0.475-0.068-0.966-0.409-1.471c-0.436-0.648-0.952-1.003-1.555-1.076
			c-0.603-0.074-1.222,0.11-1.861,0.543l-4.046,2.85l0.12,0.167C32.87,20.32,32.946,20.298,33.018,20.282z M37.118,18.927
			c0.38-0.262,0.688-0.361,0.918-0.31c0.23,0.057,0.417,0.192,0.561,0.409c0.179,0.251,0.225,0.496,0.156,0.732
			c-0.072,0.232-0.25,0.44-0.519,0.627l-1.819,1.226l-1.024-1.519L37.118,18.927z M20.423,109.65
			c0.143-0.191,2.84-3.972,2.971-4.148c0.129-0.175,0.209-0.271,0.226-0.279c0.068-0.046,0.131-0.034,0.19,0.035l0.125-0.085
			l-1.22-1.824l-0.127,0.087c0.044,0.076,0.036,0.141-0.036,0.187c-0.032,0.021-0.22,0.08-0.545,0.163
			c-0.325,0.084-4.081,1.027-4.704,1.19c-0.044,0.011-0.086,0.009-0.127-0.014c-0.044-0.022-0.074-0.051-0.099-0.087l-0.132,0.087
			l0.829,1.321l0.122-0.088c-0.009-0.02-0.021-0.04-0.032-0.076c-0.012-0.032,0.009-0.07,0.061-0.103
			c0.027-0.02,0.08-0.042,0.158-0.057c0.08-0.015,0.656-0.16,0.732-0.179l1.348,2.026c-0.035,0.052-0.394,0.549-0.443,0.609
			c-0.049,0.062-0.086,0.109-0.114,0.128c-0.055,0.032-0.092,0.032-0.116,0.013c-0.028-0.026-0.045-0.049-0.059-0.066l-0.131,0.086
			l1.001,1.406l0.126-0.089c-0.018-0.033-0.035-0.076-0.038-0.126C20.378,109.727,20.397,109.686,20.423,109.65z M19.779,105.533
			l2.391-0.556l-1.419,2.009L19.779,105.533z M28.321,111.054c0.059,0.03,0.114,0.07,0.173,0.131l0.122-0.097l-1.245-1.416
			l-0.122,0.097c0.017,0.034,0.023,0.072,0.033,0.122c0.007,0.049-0.027,0.108-0.105,0.165l-2.467,2.024
			c-0.26,0.213-0.503,0.286-0.741,0.228c-0.225-0.054-0.449-0.203-0.645-0.446c-0.203-0.247-0.308-0.49-0.321-0.729
			c-0.009-0.239,0.116-0.466,0.37-0.674l2.479-2.036c0.074-0.06,0.139-0.082,0.183-0.066c0.047,0.012,0.085,0.033,0.114,0.058
			l0.124-0.098l-1.159-1.507l-0.118,0.097c0.04,0.07,0.07,0.137,0.095,0.201c0.017,0.061-0.015,0.122-0.091,0.183l-2.285,1.888
			c-0.272,0.222-0.501,0.464-0.688,0.724c-0.186,0.261-0.304,0.539-0.363,0.833c-0.064,0.295-0.04,0.603,0.065,0.929
			c0.101,0.322,0.296,0.662,0.599,1.021c0.285,0.354,0.582,0.615,0.875,0.778c0.302,0.164,0.602,0.246,0.904,0.246
			c0.3,0,0.589-0.068,0.89-0.199c0.287-0.136,0.568-0.311,0.844-0.53l2.277-1.881C28.197,111.038,28.262,111.027,28.321,111.054z
			 M61.949,130.214c-0.213-0.29-0.47-0.524-0.772-0.706c-0.304-0.175-0.62-0.297-0.941-0.364c-0.313-0.067-0.651-0.077-0.996-0.037
			c-0.352,0.048-0.678,0.155-0.994,0.34c-0.314,0.177-0.591,0.438-0.827,0.768c-0.244,0.335-0.417,0.759-0.521,1.261
			c-0.107,0.514-0.116,0.971-0.025,1.37c0.087,0.394,0.237,0.736,0.455,1.022c0.212,0.287,0.479,0.513,0.779,0.687
			c0.305,0.169,0.614,0.285,0.936,0.352c0.321,0.067,0.661,0.086,1.007,0.048c0.342-0.032,0.67-0.141,0.985-0.312
			c0.305-0.179,0.587-0.434,0.827-0.761c0.239-0.332,0.412-0.757,0.515-1.27c0.108-0.502,0.112-0.956,0.03-1.359
			C62.318,130.85,62.162,130.504,61.949,130.214z M61.046,132.338c-0.055,0.241-0.131,0.446-0.248,0.62
			c-0.106,0.175-0.243,0.312-0.401,0.419c-0.152,0.104-0.323,0.179-0.508,0.219c-0.184,0.034-0.37,0.034-0.576-0.008
			c-0.193-0.039-0.361-0.114-0.517-0.222c-0.152-0.105-0.283-0.242-0.385-0.401c-0.109-0.159-0.173-0.345-0.206-0.546
			c-0.034-0.203-0.018-0.426,0.031-0.667c0.047-0.237,0.125-0.443,0.237-0.619c0.112-0.176,0.247-0.312,0.401-0.42
			c0.162-0.107,0.334-0.177,0.521-0.211c0.186-0.042,0.375-0.038,0.562,0.002c0.194,0.038,0.374,0.113,0.526,0.22
			c0.154,0.11,0.285,0.242,0.382,0.405c0.101,0.161,0.168,0.34,0.204,0.544C61.101,131.877,61.096,132.094,61.046,132.338z
			 M21.258,101.322c0.046,0.03,0.086,0.064,0.112,0.106l0.145-0.075l-1.137-2.026L20.237,99.4c0.021,0.052,0.033,0.097,0.042,0.14
			c0.011,0.035-0.004,0.063-0.042,0.083c-0.042,0.021-0.144,0.042-0.323,0.062c-0.177,0.018-1.829,0.143-2.055,0.163
			c0.051-0.049,1.157-1.303,1.315-1.469c0.155-0.175,0.255-0.269,0.285-0.285c0.036-0.021,0.064-0.017,0.095,0.017
			c0.025,0.029,0.052,0.072,0.085,0.114l0.139-0.076l-0.99-2.086l-0.139,0.073c0.017,0.054,0.022,0.106,0.022,0.168
			c0,0.059-0.04,0.11-0.123,0.152l-4.429,2.282c-0.084,0.042-0.154,0.049-0.199,0.015c-0.046-0.038-0.09-0.08-0.122-0.121
			l-0.139,0.074l0.694,1.493l0.145-0.071c-0.029-0.082-0.049-0.148-0.049-0.213c-0.004-0.062,0.04-0.116,0.121-0.161l3.367-1.73
			l0.009,0.018l-2.671,3.083l4.08-0.343l0.007,0.016l-3.355,1.733c-0.085,0.045-0.15,0.047-0.203,0.013
			c-0.045-0.033-0.091-0.083-0.135-0.147l-0.137,0.067l0.855,1.534l0.139-0.074c-0.019-0.047-0.024-0.103-0.024-0.152
			c0.001-0.055,0.047-0.107,0.131-0.149l4.429-2.284C21.15,101.298,21.214,101.29,21.258,101.322z M11.268,49.484
			c0.072-0.062,0.154-0.068,0.27-0.015l5.931,2.635c0.116,0.049,0.177,0.114,0.177,0.199s-0.021,0.175-0.053,0.275l0.19,0.084
			l0.952-2.465l-0.188-0.082c-0.057,0.097-0.114,0.175-0.177,0.232c-0.061,0.053-0.15,0.057-0.266,0.008l-4.063-1.8l-0.025-0.045
			c0.69-0.164,1.361-0.346,1.996-0.548c0.639-0.193,1.218-0.375,1.734-0.532c0.509-0.159,0.943-0.287,1.289-0.382
			c0.344-0.091,0.563-0.114,0.654-0.076c0.093,0.04,0.127,0.118,0.103,0.225c-0.021,0.106-0.049,0.199-0.083,0.27l0.186,0.082
			l1.27-2.549l-0.19-0.082c-0.057,0.112-0.114,0.196-0.184,0.253c-0.059,0.064-0.152,0.072-0.264,0.017l-5.936-2.629
			c-0.108-0.053-0.169-0.124-0.169-0.207c0-0.091,0.023-0.197,0.065-0.315l-0.185-0.082l-1.209,2.44l0.19,0.082
			c0.057-0.109,0.121-0.19,0.18-0.257c0.07-0.057,0.158-0.064,0.272-0.015l3.087,1.37c-0.483,0.143-0.963,0.291-1.45,0.432
			c-0.483,0.148-0.928,0.273-1.319,0.39c-0.401,0.114-0.73,0.208-0.986,0.278c-0.262,0.07-0.346,0.102-0.422,0.091
			c-0.139-0.017-0.21-0.143-0.216-0.223c0-0.078,0.006-0.156,0.025-0.224l-0.183-0.08l-1.361,3.404l0.185,0.082
			C11.144,49.625,11.209,49.543,11.268,49.484z M115.896,34.034c-0.093,0.07-0.312,0.065-0.507-0.133l-0.16,0.122l2.059,2.454
			l0.157-0.123c-0.052-0.103-0.09-0.196-0.116-0.274c-0.024-0.078-0.007-0.139,0.049-0.177c0.041-0.036,0.166-0.091,0.365-0.165
			c0.197-0.074,3.078-1.061,3.303-1.139c0.223-0.078,0.373-0.14,0.458-0.181l0.018,0.025c-0.056,0.072-0.156,0.205-0.291,0.401
			c-0.137,0.194-1.857,2.724-1.98,2.895c-0.119,0.171-0.208,0.278-0.251,0.312c-0.096,0.066-0.246-0.005-0.452-0.222l-0.164,0.122
			l1.856,2.657l0.163-0.122c-0.149-0.249-0.083-0.445,0.025-0.525c0.031-0.019,5.885-2.26,5.993-2.302
			c0.125-0.042,0.23-0.074,0.317-0.089c0.09-0.011,0.186,0.029,0.293,0.129l0.163-0.124l-1.376-2.103l-0.163,0.125
			c0.066,0.082,0.108,0.171,0.133,0.272c0.025,0.095-0.013,0.181-0.111,0.259c-0.054,0.04-3.962,1.595-4.074,1.653l-0.021-0.025
			c0.052-0.064,2.224-3.292,2.338-3.472c0.129-0.177,0.201-0.273,0.228-0.294c0.102-0.073,0.19-0.087,0.28-0.038
			c0.087,0.047,0.163,0.114,0.222,0.196l0.159-0.125l-1.877-2.467l-0.156,0.127c0.056,0.072,0.09,0.16,0.116,0.252
			c0.024,0.099-0.014,0.187-0.108,0.261c-0.053,0.046-0.183,0.099-0.38,0.177c-0.198,0.074-3.801,1.285-3.914,1.342l-0.015-0.019
			c0.072-0.09,2.644-3.521,2.683-3.543c0.1-0.078,0.19-0.089,0.278-0.04c0.086,0.048,0.158,0.108,0.215,0.18l0.162-0.118
			l-1.757-2.005l-0.159,0.123c0.027,0.04,0.045,0.087,0.055,0.143c0.008,0.053-0.025,0.116-0.082,0.187
			C119.824,28.668,115.938,34.007,115.896,34.034z M72.037,18.756c-29.407,0-53.255,23.842-53.255,53.253
			c0,29.409,23.848,53.258,53.255,53.258c29.415,0,53.26-23.849,53.26-53.258C125.297,42.598,101.451,18.756,72.037,18.756z
			 M73.924,33.446c0,0-0.38,3.36,1.012,3.085c1.763-0.338,2.931-3.931,8.898-5.347c0,0-1.336,3.777-0.191,6.516
			c1.142,3.526,2.977,5.683,1.137,10.973c-1.838,4.121-4.178,5.079-4.178,5.079l-2.238-0.002c1.243-1.258,2.926-3.252,3.479-5.267
			c0.641-2.372,0.084-3.794-0.46-5.168c-0.225-0.561-0.453-1.142-0.599-1.804c-0.488-2.245-0.109-4.623-0.106-4.644l0.317-1.944
			l-1.617,1.123c-0.735,0.515-1.715,1.045-2.749,1.61c-4.62,2.517-11.491,6.271-11.18,16.085l-3.105-0.001
			c0,0-2.321-3.271,0.207-9.165C65.477,37.765,73.924,33.446,73.924,33.446z M79.156,41.868c0.17,0.787,0.43,1.435,0.671,2.059
			c0.339,0.859,0.629,1.601,0.629,2.553c0,0.46-0.064,0.968-0.228,1.564c-0.696,2.57-3.876,5.337-4.312,5.706l-8.8-0.008
			c-0.006-0.208-0.018-0.414-0.018-0.619c0-8.376,5.924-11.602,10.329-14.002c0.5-0.272,0.986-0.542,1.446-0.804
			c-0.006,0.199-0.006,0.404-0.006,0.625C78.867,39.814,78.935,40.842,79.156,41.868z M82.806,55.035
			c0.489,0,0.884,0.399,0.884,0.885c0,0.487-0.395,0.884-0.884,0.884h-21.45c-0.488,0-0.884-0.397-0.884-0.884
			c0-0.486,0.396-0.885,0.884-0.885H82.806z M64.645,66.874c-2.791-2.878-8.1-7.418-11.216-9.438l-1.996-5.309
			C52.809,52.502,57.881,55.092,64.645,66.874z M65.415,70.189l-19.051-8.156l-2.603-6.869
			C47.192,55.802,54.373,59.186,65.415,70.189z M62.458,58.104h19.321c-1.216,2.365-4.365,5.518-9.705,5.518
			C66.747,63.622,63.454,60.469,62.458,58.104z M90.734,57.436c-3.123,2.02-8.427,6.561-11.225,9.438
			c6.765-11.782,11.846-14.372,13.218-14.748L90.734,57.436z M100.396,55.164l-2.598,6.869l-19.051,8.156
			C89.787,59.186,96.969,55.802,100.396,55.164z M66.792,122.467c-0.831-0.087-1.885-0.232-1.885-0.232
			c-3.349-2.582-6.403-6.982-8.939-12.99c-0.871-2.062-1.66-4.265-2.364-6.586H38.938c4.968,8.456,11.936,14.953,20.023,18.378
			c0,0-0.394-0.116-0.789-0.212c-1.036-0.252-2.825-0.887-2.825-0.887c-0.905-0.289-3.041-1.162-3.041-1.162
			c-5.854-3.878-10.896-9.42-14.719-16.117h-6.006c-0.056-0.058-0.867-1.173-0.867-1.173h6.248
			c-4.466-8.278-7.111-18.2-7.196-28.883h-8.493v-1.17h8.488c0.103-10.684,2.759-20.611,7.236-28.881H30.68l0.876-1.171h6.086
			c0.005-0.008,0.009-0.017,0.014-0.024c3.935-6.848,9.144-12.479,15.198-16.348c0,0,2.854-1.184,4.719-1.661
			c0,0,1.373-0.388,1.863-0.521l0.358-0.068c-8.409,3.311-15.663,9.925-20.797,18.623H53.64c0.696-2.282,1.47-4.454,2.327-6.485
			c2.588-6.146,5.729-10.609,9.169-13.166c0,0,1.359-0.175,1.75-0.207c0.392-0.032,0.892-0.066,0.892-0.066
			c-5.271,2.603-9.833,9.877-12.927,19.925h6.993c0,0-0.43,0.72-0.669,1.171h-6.684c-0.714,2.463-1.342,5.083-1.873,7.833
			l-0.454-0.191c-0.245-0.107-0.658-0.204-0.658-0.204c0.504-2.583,1.104-5.066,1.786-7.438H38.328
			c-4.572,8.211-7.289,18.157-7.394,28.881h8.801l0.449,1.17h-9.252c0.087,10.72,2.789,20.665,7.342,28.883h15.003
			c-0.565-1.97-1.084-4.001-1.529-6.118l1.319,0.573c0.418,1.926,0.891,3.771,1.403,5.545h11.108l2.651,1.173H54.816
			c3.039,9.924,7.511,17.154,12.681,19.881L66.792,122.467z M66.102,117.748c0.036,0.016,0.08,0.026,0.129,0.03v0.095h-1.568v-0.095
			c0.055-0.004,0.099-0.015,0.141-0.03c0.036-0.016,0.058-0.052,0.058-0.11v-2.503c-0.134,0.034-0.24,0.061-0.32,0.081
			c-0.083,0.02-0.143,0.042-0.181,0.067c-0.042,0.022-0.066,0.051-0.076,0.083c-0.015,0.03-0.025,0.071-0.025,0.125h-0.094v-1.27
			h0.094c0,0.029,0.004,0.067,0.012,0.114c0.013,0.05,0.035,0.074,0.078,0.074c0.009,0,0.038-0.007,0.085-0.024
			c0.046-0.019,0.1-0.04,0.163-0.059c0.052-0.022,0.108-0.042,0.164-0.063c0.049-0.02,0.081-0.034,0.101-0.042v-0.253
			c0-0.054-0.02-0.091-0.056-0.107c-0.034-0.016-0.07-0.027-0.104-0.031v-0.092h1.544v0.092c-0.058,0.004-0.107,0.016-0.143,0.031
			c-0.042,0.017-0.061,0.054-0.061,0.107v3.669C66.042,117.696,66.06,117.732,66.102,117.748z M71.242,116.664
			c-0.127,0.271-0.302,0.502-0.526,0.685c-0.219,0.181-0.472,0.319-0.765,0.415c-0.292,0.089-0.6,0.135-0.918,0.135
			c-0.205,0-0.393-0.01-0.562-0.032c-0.168-0.02-0.316-0.046-0.441-0.082c-0.129-0.034-0.228-0.063-0.302-0.092
			c-0.074-0.026-0.118-0.039-0.132-0.039c-0.065,0-0.125,0.03-0.181,0.089l-0.097-0.039l0.621-1.057l0.08,0.038v0.074
			c0,0.067,0.029,0.127,0.089,0.176c0.057,0.05,0.131,0.089,0.229,0.121c0.09,0.032,0.201,0.057,0.325,0.07
			c0.119,0.02,0.247,0.024,0.372,0.024c0.167,0,0.331-0.022,0.483-0.065c0.157-0.046,0.295-0.114,0.421-0.208
			c0.122-0.091,0.225-0.205,0.306-0.34c0.078-0.135,0.125-0.298,0.143-0.488c-0.272,0.135-0.521,0.237-0.748,0.307
			c-0.224,0.067-0.47,0.102-0.732,0.102c-0.204,0-0.394-0.032-0.58-0.095c-0.182-0.064-0.345-0.152-0.488-0.273
			c-0.141-0.122-0.253-0.269-0.336-0.439c-0.084-0.169-0.128-0.361-0.128-0.577c0-0.25,0.059-0.463,0.177-0.64
			c0.117-0.173,0.269-0.316,0.45-0.431c0.181-0.104,0.382-0.188,0.602-0.236c0.223-0.05,0.441-0.077,0.651-0.077
			c0.328,0,0.629,0.045,0.895,0.131c0.266,0.082,0.496,0.207,0.687,0.38c0.194,0.169,0.344,0.383,0.447,0.634
			c0.104,0.256,0.157,0.556,0.157,0.904C71.441,116.08,71.376,116.391,71.242,116.664z M70.78,108.873l-0.666-7.629h-0.005
			l-0.703-7.981c0-0.067-0.062-0.131-0.137-0.131c-0.066,0-0.125,0.063-0.125,0.131l-0.43,7.365l-18.861-8.355
			c-0.167-0.437-11.012-29.06-11.901-31.42l29.69,12.315l-0.821-9.327c1.208,0.531,2.61,0.903,4.191,1.017l0.84,15.439
			c0.006,0.122,0.111,0.203,0.226,0.203c0.116,0,0.226-0.081,0.228-0.203l0.841-15.439c1.591-0.118,2.993-0.496,4.198-1.034
			l-0.828,9.342l29.693-12.312c-0.897,2.36-11.729,30.983-11.898,31.42l-18.867,8.355l-0.428-7.365c0-0.067-0.059-0.131-0.132-0.131
			c-0.067,0-0.125,0.063-0.125,0.131l-0.707,7.981h-0.004l-0.676,7.636c-0.038,0.688-0.602,1.221-1.298,1.221
			C71.388,110.101,70.819,109.56,70.78,108.873z M76.38,116.782c-0.114,0.254-0.271,0.478-0.466,0.665
			c-0.198,0.19-0.425,0.335-0.681,0.436c-0.259,0.101-0.534,0.149-0.828,0.149c-0.29,0-0.564-0.049-0.82-0.149
			c-0.259-0.101-0.488-0.245-0.688-0.436c-0.195-0.188-0.35-0.411-0.464-0.665c-0.114-0.261-0.168-0.538-0.168-0.846
			c0-0.302,0.055-0.584,0.168-0.84c0.114-0.257,0.269-0.477,0.464-0.667c0.2-0.19,0.43-0.339,0.688-0.447
			c0.256-0.104,0.531-0.159,0.82-0.159c0.293,0,0.569,0.055,0.828,0.159c0.256,0.108,0.482,0.257,0.681,0.447
			c0.195,0.19,0.352,0.41,0.466,0.667c0.109,0.256,0.167,0.538,0.167,0.84C76.547,116.244,76.489,116.521,76.38,116.782z
			 M113.312,42.551h-6.14c4.484,8.271,7.146,18.194,7.248,28.881h8.298l0.014,1.17h-8.308c-0.085,10.682-2.728,20.605-7.192,28.883
			h6.048c0,0-0.669,0.928-0.862,1.173h-5.82c-3.759,6.582-8.689,12.052-14.417,15.916l-0.452,0.179
			c-0.521,0.251-2.65,1.05-2.65,1.05c-1.35,0.495-3.541,1.104-3.541,1.104c7.956-3.458,14.811-9.899,19.716-18.249H90.581
			c-0.703,2.321-1.492,4.523-2.362,6.586c-2.525,5.983-5.562,10.376-8.897,12.961c0,0-0.589,0.101-0.951,0.131
			c-0.358,0.035-1.623,0.174-1.623,0.174c5.145-2.746,9.599-9.961,12.625-19.852H75.914l2.651-1.173h11.152
			c0.515-1.782,0.989-3.637,1.408-5.572l1.314-0.58c-0.444,2.13-0.966,4.173-1.532,6.152h15.011
			c4.554-8.218,7.256-18.162,7.342-28.883h-9.302l0.443-1.17h8.856c-0.104-10.724-2.823-20.67-7.395-28.881H90.894
			c0.679,2.356,1.274,4.822,1.775,7.386l-0.23,0.082c-0.31,0.099-0.878,0.325-0.878,0.325c-0.528-2.735-1.153-5.341-1.864-7.792
			h-2.243c-0.122-0.704-0.292-1.171-0.292-1.171h2.175c-3.093-10.05-7.656-17.328-12.925-19.925c0,0,1.449,0.143,1.797,0.185
			c0.35,0.045,0.898,0.131,0.898,0.131c3.42,2.562,6.531,7.012,9.112,13.124c0.857,2.03,1.632,4.203,2.328,6.485h14.652
			c-5.083-8.611-12.244-15.179-20.546-18.522c0,0,2.87,0.777,4.491,1.374c0,0,1.646,0.61,1.895,0.73
			c0.22,0.104,0.615,0.252,0.615,0.252c5.924,3.864,11.026,9.427,14.893,16.166h5.896L113.312,42.551z M79.574,117.752
			c0.04,0.015,0.083,0.026,0.132,0.03v0.095h-1.741v-0.095c0.059-0.004,0.105-0.025,0.147-0.062
			c0.036-0.037,0.071-0.081,0.105-0.134l1.741-2.918h-2.54c-0.032,0-0.059,0.012-0.093,0.034c-0.03,0.022-0.048,0.072-0.048,0.144
			h-0.091v-1.301h0.091c0,0.081,0.018,0.135,0.048,0.159c0.034,0.024,0.061,0.036,0.093,0.036h3.539c0.029,0,0.059-0.012,0.09-0.036
			c0.033-0.024,0.051-0.072,0.051-0.145h0.094v1.006l-1.521,2.759c-0.029,0.058-0.064,0.12-0.103,0.181
			c-0.036,0.065-0.055,0.11-0.055,0.135C79.514,117.7,79.536,117.738,79.574,117.752z M113.688,23.476
			c-0.4,0.197-5.184,2.571-5.945,2.961c-0.052,0.029-0.108,0.032-0.175,0.011c-0.063-0.019-0.123-0.049-0.166-0.091l-0.135,0.154
			l1.823,1.496l0.132-0.148c-0.022-0.026-0.051-0.057-0.083-0.099c-0.028-0.04-0.016-0.091,0.036-0.152
			c0.03-0.032,0.094-0.07,0.183-0.118c0.095-0.046,0.85-0.405,0.914-0.447l2.667,2.376c-0.025,0.08-0.301,0.92-0.335,1.011
			c-0.037,0.101-0.073,0.164-0.101,0.2c-0.056,0.057-0.104,0.072-0.151,0.047c-0.045-0.024-0.078-0.047-0.105-0.068l-0.133,0.156
			l1.85,1.863l0.133-0.152c-0.045-0.038-0.083-0.087-0.112-0.152c-0.028-0.062-0.028-0.122-0.004-0.177
			c0.108-0.296,2.15-6.442,2.243-6.706c0.098-0.273,0.162-0.421,0.183-0.447c0.064-0.075,0.152-0.072,0.26,0.006l0.132-0.152
			l-2.364-2.147l-0.13,0.152c0.088,0.099,0.102,0.185,0.034,0.26C114.303,23.156,114.082,23.275,113.688,23.476z M113.363,28.161
			l-1.905-1.699l2.908-1.376L113.363,28.161z M84.034,130.5c-0.2-0.114-0.417-0.144-0.665-0.097
			c-0.012-0.284,0.054-0.523,0.186-0.723c0.135-0.199,0.287-0.369,0.462-0.5l-0.076-0.373c-0.169,0.116-0.338,0.251-0.502,0.407
			c-0.167,0.159-0.304,0.338-0.416,0.538c-0.11,0.201-0.187,0.416-0.233,0.651c-0.048,0.236-0.048,0.496,0.007,0.778
			c0.059,0.312,0.175,0.566,0.35,0.777c0.17,0.205,0.398,0.279,0.674,0.228c0.21-0.038,0.372-0.156,0.496-0.338
			c0.125-0.188,0.163-0.419,0.11-0.692C84.358,130.829,84.231,130.609,84.034,130.5z M43.422,17.482
			c0.337,0.137,0.705,0.194,1.103,0.164c0.403-0.027,0.815-0.106,1.237-0.237c0.417-0.127,0.81-0.248,1.181-0.361
			c0.359-0.108,0.672-0.171,0.935-0.188c0.266-0.017,0.445,0.08,0.543,0.286c0.071,0.158,0.074,0.298,0.012,0.433
			c-0.052,0.131-0.14,0.253-0.26,0.363c-0.118,0.11-0.249,0.209-0.392,0.282c-0.139,0.078-0.251,0.133-0.332,0.175
			c-0.286,0.127-0.599,0.241-0.942,0.344c-0.343,0.103-0.674,0.179-0.985,0.226c-0.312,0.052-0.582,0.068-0.795,0.059
			c-0.223-0.01-0.355-0.064-0.401-0.171c-0.021-0.042-0.033-0.074-0.044-0.101c-0.007-0.03-0.014-0.049-0.023-0.074l-0.222-0.008
			l0.366,2.326l0.177-0.024c0.027-0.078,0.048-0.143,0.08-0.216c0.027-0.068,0.081-0.118,0.145-0.146
			c0.026-0.012,0.146-0.036,0.368-0.071c0.219-0.028,0.481-0.078,0.806-0.144c0.32-0.065,0.665-0.156,1.03-0.268
			c0.367-0.114,0.717-0.245,1.059-0.399c0.528-0.245,0.966-0.509,1.305-0.792c0.338-0.287,0.591-0.589,0.741-0.914
			c0.163-0.321,0.237-0.65,0.23-0.975c0-0.331-0.067-0.643-0.208-0.939c-0.206-0.454-0.481-0.756-0.821-0.905
			c-0.343-0.148-0.712-0.211-1.111-0.19c-0.403,0.025-0.821,0.1-1.242,0.223c-0.423,0.124-0.817,0.243-1.186,0.354
			c-0.357,0.11-0.675,0.179-0.925,0.204c-0.264,0.03-0.439-0.051-0.521-0.238c-0.081-0.175-0.078-0.336,0.02-0.488
			c0.099-0.148,0.227-0.285,0.381-0.413c0.156-0.129,0.318-0.238,0.499-0.327c0.167-0.085,0.298-0.146,0.385-0.184
			c0.249-0.11,0.495-0.196,0.741-0.257c0.25-0.059,0.481-0.097,0.691-0.12c0.212-0.021,0.387-0.028,0.528-0.019
			c0.14,0.012,0.22,0.037,0.239,0.076c0.014,0.031,0.026,0.062,0.038,0.097c0.009,0.034,0.015,0.059,0.026,0.082l0.225,0.003
			l-0.046-2.323l-0.184,0.01c-0.021,0.049-0.045,0.106-0.071,0.173c-0.022,0.07-0.075,0.12-0.153,0.154
			c-0.074,0.034-0.206,0.072-0.394,0.11c-0.195,0.036-0.426,0.089-0.701,0.152c-0.266,0.059-0.566,0.141-0.89,0.236
			c-0.316,0.104-0.649,0.228-0.98,0.38c-0.574,0.263-1.023,0.559-1.35,0.892c-0.328,0.329-0.566,0.663-0.699,1.003
			c-0.146,0.336-0.206,0.667-0.194,0.99c0.011,0.325,0.078,0.606,0.185,0.842C42.822,17.059,43.088,17.344,43.422,17.482z
			 M88.07,127.269l-0.241-0.813l-1.965,0.586l0.241,0.812L88.07,127.269z M91.59,132.9c-0.048-0.008-0.081-0.034-0.104-0.072
			c-0.139-0.196-2.864-3.958-2.991-4.137c-0.12-0.178-0.192-0.278-0.198-0.305c-0.022-0.076,0.011-0.132,0.098-0.161l-0.044-0.155
			l-2.114,0.576l0.043,0.15c0.09-0.012,0.147,0.017,0.166,0.095c0.018,0.046,0.006,0.229-0.019,0.568
			c-0.026,0.333-0.323,4.194-0.369,4.841c0,0.044-0.016,0.088-0.053,0.117c-0.032,0.035-0.072,0.054-0.11,0.067l0.04,0.15
			l1.513-0.354l-0.042-0.146c-0.019,0-0.045,0.002-0.08,0.007c-0.036,0-0.062-0.029-0.077-0.09c-0.008-0.033-0.008-0.09,0-0.17
			c0.003-0.076,0.05-0.688,0.055-0.759l2.354-0.636c0.032,0.053,0.394,0.551,0.44,0.617c0.042,0.067,0.064,0.112,0.076,0.148
			c0.018,0.057,0.011,0.097-0.024,0.112c-0.028,0.02-0.052,0.032-0.076,0.033l0.042,0.152l1.643-0.502L91.72,132.9
			C91.682,132.909,91.635,132.909,91.59,132.9z M87.379,132.13l0.23-2.442l1.45,1.985L87.379,132.13z M94.306,131.948
			c-0.067-0.008-0.11-0.056-0.148-0.147l-1.669-4.677c-0.032-0.088-0.028-0.157,0.021-0.199c0.047-0.047,0.121-0.094,0.218-0.135
			l-0.055-0.149l-1.958,0.696l0.058,0.147c0.101-0.026,0.18-0.038,0.248-0.029c0.065,0.003,0.108,0.049,0.145,0.141l1.679,4.683
			c0.032,0.094,0.024,0.16-0.019,0.205c-0.056,0.045-0.125,0.086-0.219,0.132l0.055,0.148l1.948-0.703l-0.047-0.148
			C94.453,131.94,94.37,131.951,94.306,131.948z M64.654,7.61c0.101,0.023,0.172,0.063,0.21,0.127l3.101,4.163l0.11,2.182
			c0.004,0.125-0.034,0.206-0.099,0.245c-0.072,0.037-0.139,0.061-0.213,0.078l0.009,0.202l2.702-0.137l-0.008-0.202
			c-0.074-0.008-0.144-0.027-0.222-0.057c-0.07-0.03-0.108-0.108-0.118-0.231l-0.11-2.252l2.379-4.374
			c0.036-0.07,0.103-0.118,0.19-0.146c0.091-0.027,0.164-0.04,0.213-0.04L72.789,6.96l-3.002,0.036l0.012,0.2
			c0.049-0.002,0.116,0.005,0.2,0.017c0.081,0.013,0.126,0.062,0.126,0.153c0.004,0.056-0.05,0.236-0.165,0.445
			C69.848,8.019,68.94,9.64,68.9,9.732c-0.164-0.219-1.316-1.724-1.422-1.871c-0.103-0.146-0.154-0.299-0.156-0.355
			c-0.005-0.089,0.034-0.143,0.124-0.167c0.084-0.015,0.158-0.03,0.224-0.034l-0.012-0.202L64.403,7.39l0.013,0.201
			C64.481,7.589,64.557,7.595,64.654,7.61z M56.158,11.045c-0.033-0.154-0.023-0.261,0.03-0.317
			c0.048-0.055,0.103-0.089,0.169-0.106l2.158-0.434l1.028,5.111c0.025,0.123,0.002,0.207-0.064,0.253
			c-0.067,0.053-0.144,0.087-0.22,0.115l0.034,0.2l2.722-0.547l-0.042-0.198c-0.076,0.005-0.167-0.002-0.247-0.021
			c-0.083-0.019-0.134-0.087-0.156-0.208l-1.028-5.109L62.7,9.348c0.061-0.013,0.131-0.002,0.198,0.033
			c0.063,0.032,0.113,0.121,0.146,0.277l0.182-0.032l-0.488-2.439l-0.18,0.038c0.028,0.156,0.021,0.264-0.033,0.321
			c-0.052,0.057-0.103,0.095-0.166,0.106l-6.345,1.273c-0.067,0.013-0.13,0-0.199-0.027c-0.067-0.036-0.112-0.127-0.15-0.287
			l-0.183,0.032l0.489,2.436L56.158,11.045z M50.834,10.77c0.089,0.001,0.153,0.068,0.193,0.183l2.032,6.162
			c0.043,0.12,0.027,0.205-0.044,0.262c-0.074,0.065-0.178,0.124-0.323,0.177l0.064,0.198l2.906-0.948l-0.067-0.192
			c-0.152,0.038-0.271,0.053-0.359,0.047c-0.103-0.002-0.169-0.065-0.208-0.183L53,10.321c-0.04-0.122-0.026-0.205,0.047-0.268
			c0.072-0.061,0.18-0.118,0.323-0.181l-0.064-0.194l-2.902,0.947l0.059,0.194C50.613,10.779,50.736,10.764,50.834,10.77z
			 M90.582,17.302c-0.109-0.051-0.199-0.108-0.271-0.167c-0.062-0.055-0.076-0.146-0.034-0.264l0.751-2.18l2.671,0.924
			c0.051,0.021,0.104,0.065,0.147,0.129c0.038,0.07,0.031,0.185-0.019,0.344l0.173,0.061l0.743-2.144l-0.18-0.059
			c-0.051,0.15-0.114,0.236-0.181,0.256c-0.078,0.023-0.146,0.023-0.198,0.006l-2.667-0.926l0.514-1.48l3.945,1.37
			c0.058,0.017,0.103,0.061,0.152,0.129c0.033,0.067,0.033,0.181-0.028,0.34l0.179,0.067l0.752-2.178l-0.175-0.059
			c-0.049,0.152-0.114,0.239-0.188,0.264c-0.072,0.021-0.145,0.021-0.195,0.002l-6.318-2.21l-0.06,0.196
			c0.123,0.055,0.224,0.114,0.293,0.173c0.072,0.057,0.083,0.146,0.04,0.264l-2.122,6.137c-0.039,0.12-0.102,0.179-0.189,0.187
			c-0.088,0.003-0.199-0.008-0.314-0.036l-0.067,0.188l2.779,0.855L90.582,17.302z M101.703,22.468
			c-0.1-0.074-0.181-0.152-0.226-0.221c-0.049-0.072-0.04-0.161,0.019-0.268l1.365-2.172l2.886,1.81l-1.363,2.182
			c-0.069,0.105-0.144,0.15-0.229,0.133c-0.088-0.014-0.188-0.049-0.297-0.106l-0.108,0.171l2.396,1.667l0.104-0.171
			c-0.102-0.072-0.175-0.146-0.222-0.22c-0.056-0.072-0.043-0.162,0.02-0.268l3.45-5.499c0.067-0.103,0.149-0.146,0.234-0.131
			c0.084,0.011,0.183,0.049,0.297,0.102l0.106-0.172l-2.416-1.669l-0.11,0.173c0.1,0.074,0.176,0.148,0.223,0.22
			c0.055,0.073,0.05,0.162-0.016,0.269l-1.142,1.849l-2.893-1.812l1.149-1.859c0.066-0.103,0.141-0.146,0.229-0.129
			c0.086,0.009,0.185,0.047,0.305,0.102l0.104-0.172l-2.537-1.464l-0.113,0.173c0.096,0.072,0.177,0.152,0.226,0.222
			c0.052,0.07,0.044,0.162-0.019,0.264l-3.434,5.523c-0.062,0.104-0.141,0.15-0.228,0.135c-0.081-0.017-0.185-0.053-0.292-0.106
			l-0.109,0.171l2.532,1.446L101.703,22.468z M79.347,135.55c-0.04-0.015-0.067-0.049-0.086-0.091
			c-0.097-0.223-2.025-4.444-2.115-4.644s-0.133-0.312-0.133-0.343c-0.006-0.075,0.041-0.12,0.126-0.134l-0.014-0.161l-2.183,0.149
			l0.008,0.157c0.093,0.004,0.145,0.047,0.148,0.121c0.008,0.047-0.044,0.229-0.132,0.558c-0.087,0.324-1.146,4.048-1.313,4.674
			c-0.009,0.043-0.034,0.076-0.078,0.103c-0.036,0.027-0.079,0.039-0.113,0.041l0.001,0.156l1.56-0.044l-0.014-0.157
			c-0.012,0-0.047-0.004-0.085-0.009c-0.029-0.011-0.057-0.043-0.059-0.104c0-0.035,0.01-0.089,0.032-0.169
			c0.024-0.072,0.19-0.652,0.208-0.726l2.425-0.166c0.03,0.061,0.287,0.62,0.311,0.694c0.035,0.068,0.051,0.125,0.051,0.159
			c0.001,0.062-0.01,0.098-0.048,0.108c-0.032,0.012-0.061,0.017-0.077,0.017l0.009,0.158l1.713-0.172l-0.008-0.154
			C79.439,135.58,79.393,135.57,79.347,135.55z M75.374,133.963l0.711-2.346l1.028,2.231L75.374,133.963z M50.431,126.461
			c0.083,0.04,0.11,0.099,0.076,0.173c-0.01,0.038-0.125,0.192-0.338,0.448c-0.221,0.263-2.715,3.219-3.127,3.722
			c-0.029,0.032-0.061,0.057-0.11,0.061c-0.049,0.006-0.087,0-0.134-0.011l-0.053,0.146l1.443,0.592l0.054-0.148
			c-0.022-0.004-0.039-0.018-0.072-0.036c-0.032-0.022-0.038-0.062-0.017-0.116c0.017-0.036,0.049-0.078,0.097-0.137
			c0.051-0.062,0.441-0.519,0.49-0.579l2.277,0.851c0,0.062,0.002,0.685,0,0.763c0,0.078-0.009,0.133-0.022,0.167
			c-0.018,0.056-0.047,0.084-0.083,0.082c-0.038-0.007-0.067-0.012-0.083-0.021l-0.057,0.15l1.628,0.542l0.056-0.144
			c-0.042-0.016-0.074-0.038-0.101-0.074c-0.033-0.038-0.051-0.076-0.049-0.127c0.009-0.235-0.015-4.876-0.015-5.096
			c0-0.219,0.009-0.341,0.022-0.367c0.025-0.07,0.085-0.095,0.173-0.07l0.055-0.148l-2.057-0.769L50.431,126.461z M51.018,130.414
			l-1.634-0.606l1.608-1.849L51.018,130.414z"/>
	</g>
</g>
</svg>
