<?xml version="1.0" encoding="UTF-8" standalone="no"?>
<!-- Created with Inkscape (http://www.inkscape.org/) -->

<svg
   width="210mm"
   height="297mm"
   viewBox="0 0 210 297"
   version="1.1"
   id="svg1"
   xml:space="preserve"
   xmlns="http://www.w3.org/2000/svg"
   xmlns:svg="http://www.w3.org/2000/svg"><defs
     id="defs1" /><g
     id="layer1"><path
       style="display:inline;fill:#43d876;fill-opacity:1"
       d="m 163.18282,159.37456 c 0.91387,-0.0705 1.136,-0.13033 1.78822,-0.48147 0.4096,-0.22051 0.84226,-0.51251 0.96148,-0.64888 0.51369,-0.58762 0.65706,-0.79846 0.94012,-1.38258 0.5549,-1.14506 0.61443,-1.6707 0.62347,-5.50537 0.007,-3.0521 0.0356,-3.63796 0.21255,-4.38925 0.23256,-0.98712 0.62194,-1.90455 1.14695,-2.7023 1.24061,-1.88514 2.97421,-5.3921 3.7269,-7.53929 0.66266,-1.89035 1.20234,-4.3644 1.383,-6.34003 0.0436,-0.47685 0.0829,-2.30571 0.0873,-4.06412 0.006,-2.46854 0.0419,-3.2712 0.15695,-3.52224 0.16383,-0.35757 0.19734,-0.43799 0.60972,-1.46308 0.15586,-0.38745 0.64223,-1.5823 1.08083,-2.65523 1.44143,-3.52613 2.13508,-5.35118 3.08932,-8.12824 1.04087,-3.02915 2.54107,-7.77797 2.77322,-8.77851 0.267,-1.15072 0.24118,-3.393845 -0.0555,-4.818079 -0.47802,-2.29507 -1.14726,-3.479656 -2.46554,-4.364126 -1.11344,-0.747036 -2.24002,-1.110643 -3.40495,-1.098957 -1.99077,0.01997 -3.53408,0.85913 -4.54151,2.469399 -0.29174,0.466319 -1.28651,2.491006 -1.49518,3.043198 -0.0676,0.178821 -0.17945,0.471438 -0.24862,0.650259 -0.28454,0.735673 -0.87979,2.409846 -0.98261,2.763606 -0.0606,0.20862 -0.1733,0.52562 -0.25038,0.70445 -0.0771,0.17882 -0.30074,0.8372 -0.49702,1.46308 -0.19627,0.62587 -0.3911,1.21111 -0.43295,1.30052 -0.1527,0.32627 -0.29652,0.71478 -0.43331,1.17053 -0.27467,0.91518 -0.31121,0.9174 -1.20153,0.0728 -1.80541,-1.71278 -4.55478,-2.48194 -6.75734,-1.89045 -1.40572,0.3775 -1.66638,0.39007 -1.87341,0.0904 -0.40039,-0.57967 -1.29343,-1.42538 -1.964,-1.85992 -1.76728,-1.14523 -3.4807,-1.591335 -5.85101,-1.52338 -1.76887,0.05071 -2.75255,0.50418 -4.19062,1.93184 -0.60226,0.5979 -1.41714,1.5686 -1.70863,2.03535 -0.25223,0.40389 -0.42639,0.37519 -0.75724,-0.12476 -1.30597,-1.97345 -4.044,-3.31781 -6.57007,-3.22587 -1.11136,0.0405 -2.37921,0.34338 -3.30535,0.78974 -0.29429,0.14184 -0.58037,0.25789 -0.63574,0.25789 -0.11062,0 -1.10731,0.7096 -1.38702,0.98751 -0.0967,0.0961 -0.32887,0.2651 -0.51593,0.37559 -0.18705,0.1105 -0.3401,0.26354 -0.3401,0.3401 0,0.0766 -0.0457,0.1392 -0.10153,0.1392 -0.0805,0 -0.94443,1.23169 -1.34835,1.92223 -0.17526,0.29965 -0.72346,1.93731 -0.76908,2.29753 -0.0269,0.21244 -0.12642,0.92271 -0.22114,1.57839 -0.16594,1.14862 -0.23488,4.43628 -0.10567,5.03951 0.0319,0.14902 0.0842,0.53917 0.11625,0.86701 0.032,0.32784 0.13346,0.86431 0.22543,1.19215 0.14834,0.52878 0.25193,1.21978 0.39806,2.65522 0.0243,0.23843 0.0819,0.78709 0.12798,1.21924 0.12842,1.20351 0.0265,1.1535 -2.7112,-1.33037 -1.32235,-1.19975 -1.69963,-1.49125 -2.84622,-2.19908 -1.6804,-1.03736 -4.09399,-2.01996 -5.93228,-2.41511 -1.37053,-0.2946 -5.11631,-0.12857 -5.89809,0.26143 -0.18581,0.0927 -0.6173,0.22585 -0.95887,0.2959 -0.34156,0.07 -0.67154,0.16814 -0.73327,0.21799 -0.0617,0.0498 -0.41785,0.24225 -0.79136,0.42757 -0.37352,0.18532 -0.70619,0.40748 -0.73927,0.4937 -0.0331,0.0862 -0.15135,0.15675 -0.26281,0.15675 -0.11147,0 -0.27921,0.11683 -0.37277,0.25962 -0.0936,0.1428 -0.26514,0.28447 -0.38127,0.31484 -0.11614,0.0304 -0.24287,0.1452 -0.28162,0.25517 -0.0388,0.10997 -0.16239,0.29749 -0.27474,0.4167 -0.41267,0.43787 -0.63129,0.74099 -0.63129,0.87528 0,0.0757 -0.11561,0.27553 -0.25691,0.44402 -0.1413,0.16849 -0.29136,0.46429 -0.33346,0.65733 -0.0421,0.19304 -0.12228,0.37924 -0.17815,0.41377 -0.15521,0.0959 -0.53146,0.8795 -0.45772,0.95324 0.0357,0.0357 0.0164,0.12713 -0.0429,0.20308 -0.17579,0.22493 -0.39058,1.76525 -0.39482,2.83138 -0.005,1.30149 0.21343,1.94781 0.92041,2.72136 0.29627,0.32417 0.64556,0.62332 0.77619,0.66478 0.13063,0.0415 0.28647,0.13628 0.34631,0.2107 0.10997,0.13677 0.33888,0.19377 1.51768,0.37792 1.31845,0.20595 1.7037,0.29386 1.77225,0.40439 0.0386,0.0622 0.25294,0.11309 0.47634,0.11303 0.22341,-6e-5 0.57871,0.10168 0.78957,0.22609 0.21085,0.12441 0.75961,0.35239 1.21946,0.50663 0.45985,0.15424 0.91308,0.34995 1.00718,0.4349 0.0941,0.085 0.22028,0.15447 0.2804,0.15447 0.20186,0 1.38551,0.90233 1.96281,1.49631 0.31455,0.32363 0.69454,0.79769 0.84444,1.05347 0.14989,0.25577 0.34365,0.49233 0.43058,0.52569 0.0869,0.0334 0.15804,0.17813 0.15804,0.32172 0,0.14359 0.07,0.31918 0.1556,0.39021 0.0856,0.071 0.18595,0.26731 0.22304,0.43619 0.0371,0.16888 0.16215,0.49282 0.27791,0.71987 0.11576,0.22705 0.21047,0.49717 0.21047,0.60027 0,0.10309 0.0393,0.21171 0.0873,0.24137 0.048,0.0297 0.30073,0.48366 0.56163,1.00888 0.2609,0.52522 0.61178,1.15881 0.77974,1.40798 0.16796,0.24917 0.30538,0.50674 0.30538,0.57238 0,0.0656 0.075,0.14811 0.1666,0.18327 0.0916,0.0352 0.23546,0.22871 0.3196,0.43011 0.0841,0.20139 0.20426,0.36617 0.26691,0.36617 0.0627,0 0.1139,0.0559 0.1139,0.12431 0,0.1018 0.64429,0.97712 0.86576,1.17621 0.0332,0.0298 0.30004,0.33845 0.59309,0.68587 0.29305,0.34743 0.97473,0.99626 1.51486,1.44185 0.54012,0.44559 1.0983,0.90719 1.24039,1.02578 0.14209,0.11858 0.40676,0.29236 0.58816,0.38616 0.1814,0.0938 0.55284,0.3238 0.82542,0.51109 0.27258,0.18729 0.64191,0.41323 0.82073,0.50208 0.17882,0.0889 0.41967,0.2469 0.53523,0.35121 0.11555,0.10431 0.26724,0.18966 0.3371,0.18966 0.0699,0 0.29483,0.1139 0.49996,0.2531 0.20513,0.1392 0.54033,0.28657 0.74489,0.32748 0.20457,0.0409 0.55457,0.19525 0.7778,0.34298 0.22322,0.14772 0.47298,0.26858 0.55502,0.26858 0.16481,0 1.05628,0.82953 1.30779,1.21692 0.22645,0.3488 0.56152,1.44031 0.80748,2.63045 0.16038,0.77607 0.2674,2.26701 0.28394,3.95575 0.0156,1.5903 0.0928,1.86122 0.70525,2.47366 0.40884,0.40884 1.59283,0.77755 2.49804,0.77793 0.38577,1.6e-4 1.87186,0.0995 3.30243,0.22084 1.43057,0.12131 3.23504,0.24677 4.00994,0.27882 2.04278,0.0845 2.53749,0.11138 5.41883,0.29479 1.43057,0.0911 2.84488,0.16413 3.14292,0.16237 0.29803,-0.002 0.9808,0.0225 1.51727,0.054 0.53646,0.0315 1.7557,0.0907 2.70941,0.13166 2.85141,0.12244 3.02317,0.13277 3.31165,0.19907 0.15241,0.035 0.59521,0.0254 0.984,-0.0214 0.38879,-0.0468 0.82494,-0.0536 0.96923,-0.0152 0.52264,0.13932 1.58458,0.1809 2.60633,0.10205 z m 0.16193,-4.04005 c -0.22086,-0.29704 -0.22144,-0.31204 -0.0314,-0.81282 0.45244,-1.19225 0.52465,-1.74395 0.49942,-3.81569 -0.0666,-5.47043 0.0264,-5.84729 2.66223,-10.78347 0.28646,-0.53646 0.54983,-0.99981 0.58525,-1.02966 0.1235,-0.10405 1.54483,-2.86087 1.82029,-3.53064 0.49582,-1.20554 0.79209,-2.20095 1.07808,-3.62213 0.16622,-0.82599 0.18296,-0.92628 0.3158,-1.89206 0.0951,-0.69105 0.0936,-3.52119 -0.002,-4.90839 -0.10932,-1.57815 0.27462,-3.60818 0.9876,-5.22181 0.14669,-0.33198 0.3096,-0.70115 0.36203,-0.82036 0.25513,-0.58014 1.35151,-2.966 1.79206,-3.89974 0.22838,-0.48403 0.89334,-2.16378 1.45944,-3.68663 0.11079,-0.29803 0.30818,-0.81011 0.43864,-1.13795 0.13046,-0.32784 0.4986,-1.3221 0.81807,-2.20947 0.88515,-2.45857 1.38287,-3.77362 1.71309,-4.52626 0.0955,-0.21763 0.17362,-0.44995 0.17362,-0.51626 0,-0.0663 0.046,-0.20524 0.10231,-0.30875 0.20134,-0.37033 0.53317,-1.61273 0.66802,-2.50113 0.16444,-1.083349 0.0112,-2.448374 -0.36519,-3.252599 -0.68663,-1.467184 -2.42602,-2.240041 -3.71939,-1.652628 -0.80147,0.364007 -1.61834,1.45453 -1.99727,2.666355 -0.0746,0.238428 -0.17247,0.482275 -0.21759,0.541882 -0.0451,0.05961 -0.21192,0.449763 -0.37068,0.867013 -0.15875,0.41725 -0.42724,1.100027 -0.59664,1.517277 -0.16941,0.41725 -0.40503,1.02686 -0.52362,1.3547 -1.03208,2.85321 -1.89005,5.09147 -2.08697,5.44446 -0.0578,0.1035 -0.10605,0.24981 -0.10734,0.32513 -10e-4,0.0753 -0.3474,0.91725 -0.76912,1.87096 -0.42172,0.95372 -0.83898,1.92911 -0.92724,2.16753 -0.0883,0.23843 -0.22253,0.50666 -0.29838,0.59608 -0.0759,0.0894 -0.2236,0.52833 -0.32833,0.97538 -0.22646,0.96664 -0.79038,2.35568 -1.73794,4.28088 -1.0073,2.04655 -1.51047,3.23729 -2.24408,5.31045 -0.35856,1.01332 -0.71443,1.98871 -0.79081,2.16753 -0.0764,0.17883 -0.1725,0.43654 -0.2136,0.5727 -0.11388,0.37729 -0.67339,1.52983 -1.03728,2.13672 -0.1787,0.29803 -0.3541,0.62723 -0.38978,0.73154 -0.0357,0.10431 -0.0961,0.18966 -0.13416,0.18966 -0.0381,0 -0.13174,0.14112 -0.20809,0.3136 -0.0763,0.17248 -0.24861,0.43207 -0.3828,0.57687 -0.1342,0.1448 -0.35203,0.40062 -0.48407,0.56848 -0.44006,0.55945 -1.91042,1.75486 -2.4523,1.99374 -0.18365,0.081 -0.45092,0.20289 -0.59392,0.27094 -0.14415,0.0686 -0.77198,0.12374 -1.4089,0.12374 -1.02295,0 -1.23173,-0.0345 -1.90463,-0.31515 -0.87299,-0.36405 -2.14746,-1.2694 -2.6336,-1.87085 -0.29557,-0.36567 -0.36108,-0.39945 -0.55082,-0.28395 -0.11845,0.0721 -0.62153,0.21363 -1.11796,0.31452 -0.83427,0.16955 -0.98873,0.17053 -2.04055,0.0129 -1.39028,-0.20841 -2.05312,-0.39525 -2.99207,-0.84337 -0.80467,-0.38403 -1.95948,-1.44874 -2.19929,-2.02769 -0.17313,-0.41798 -0.22718,-0.4276 -0.56491,-0.10056 -0.42581,0.41232 -0.87245,0.68069 -1.55915,0.93681 -1.94019,0.72364 -5.11121,-0.23683 -5.83791,-1.76824 -0.23761,-0.50072 -1.0188,-3.54433 -1.10958,-4.32305 -0.10691,-0.91713 -0.2595,-0.75806 -0.2599,0.27094 -4e-4,1.05005 -0.44481,3.87446 -0.60962,3.87446 -0.0967,0 -1.3665,-0.66914 -2.15929,-1.13785 -0.45379,-0.26829 -0.84958,-0.4878 -0.87952,-0.4878 -0.10638,0 -2.59327,-1.76015 -3.22609,-2.28333 -0.61846,-0.5113 -0.65126,-0.52452 -0.85244,-0.34345 -0.30015,0.27015 -1.14446,1.74113 -1.27445,2.22037 -0.0894,0.3297 -0.16058,0.40641 -0.37699,0.40641 -0.22994,0 -0.26677,-0.0497 -0.26677,-0.36024 0,-0.33945 0.70146,-1.86474 1.00453,-2.1843 0.2957,-0.31179 0.51274,-0.60595 0.51274,-0.69494 0,-0.0517 -0.22102,-0.2752 -0.49117,-0.49656 -0.5653,-0.46322 -3.502,-2.33305 -3.66423,-2.33305 -0.0596,0 -0.1854,-0.0646 -0.2795,-0.14352 -0.14214,-0.11923 -0.85717,-0.43677 -2.12188,-0.94232 -1.48156,-0.59223 -3.1444,-0.76624 -4.71298,-0.49318 -1.59656,0.27792 -2.28729,0.55165 -3.13611,1.2428 -0.47314,0.38526 -1.30873,1.53996 -1.30873,1.80855 0,0.076 0.36441,0.31347 0.80979,0.52769 2.12902,1.02402 4.10445,2.83801 4.72744,4.3411 0.23284,0.56176 0.2957,0.62232 1.02515,0.98772 1.9743,0.98896 3.52478,2.57917 5.11184,5.24285 0.12431,0.20862 0.55415,1.03506 0.95521,1.83653 1.42371,2.84508 2.49847,4.31168 4.338,5.91956 1.47375,1.28818 2.57263,1.96673 4.97883,3.07441 2.01599,0.92805 2.62276,1.29564 3.34052,2.02374 0.98543,0.99962 1.81041,3.18797 2.13583,5.66554 0.13987,1.06486 0.16819,3.17855 0.0537,4.00583 -0.0739,0.53356 -0.11091,0.59218 -0.46873,0.74169 -0.34782,0.14533 -0.42609,0.14443 -0.74704,-0.009 -0.19718,-0.094 -0.36403,-0.20833 -0.37079,-0.254 -0.007,-0.0457 -0.0255,-1.05842 -0.0417,-2.25056 -0.0283,-2.08155 -0.0591,-2.35022 -0.47898,-4.1725 -0.1406,-0.61027 -0.5129,-1.49847 -0.88643,-2.1148 -0.42293,-0.69783 -1.46354,-1.41048 -3.07818,-2.10807 -2.17548,-0.93989 -3.80483,-1.89303 -4.99811,-2.9238 -0.24545,-0.21203 -0.69846,-0.60497 -1.00666,-0.8732 -0.59071,-0.51408 -1.993,-2.17415 -2.60912,-3.08873 -0.77682,-1.15313 -0.82882,-1.24434 -1.54472,-2.70942 -1.73334,-3.54724 -3.06238,-5.20292 -5.17668,-6.44898 -0.80045,-0.47174 -5.39734,-2.02127 -6.28584,-2.11884 -0.47527,-0.0522 -1.49983,-0.44677 -1.75012,-0.674 -0.47779,-0.43378 -0.67455,-1.11721 -0.59653,-2.07191 0.0843,-1.03126 0.26231,-1.6113 0.87975,-2.86641 0.8157,-1.65815 1.08074,-2.02969 2.0336,-2.85075 0.78264,-0.67438 1.56122,-1.00748 3.22648,-1.38035 2.61258,-0.585 5.30952,-0.0866 8.55003,1.58001 2.08318,1.07139 3.48403,2.02961 5.63616,3.85528 0.78583,0.66663 2.28988,1.7174 3.37009,2.35443 0.5452,0.32153 0.84795,0.44305 0.9212,0.36976 0.15994,-0.16002 0.156,-2.69665 -0.006,-3.89138 -0.0768,-0.56627 -0.29268,-1.88305 -0.47972,-2.92617 -0.79511,-4.43433 -0.89525,-5.9595 -0.53724,-8.18243 0.253,-1.57084 0.89043,-3.24664 1.50068,-3.94524 0.12512,-0.14323 0.22749,-0.29635 0.22749,-0.34025 0,-0.0439 0.1585,-0.24915 0.35223,-0.4561 1.21714,-1.30023 2.73146,-1.91998 4.69704,-1.92229 2.37682,-0.003 4.05321,0.81462 5.56692,2.71445 0.41874,0.52556 1.52144,2.65632 1.52177,2.94055 4.6e-4,0.38757 0.21258,0.28955 0.33089,-0.1529 0.0682,-0.25513 0.16168,-0.51264 0.20769,-0.57225 0.046,-0.0596 0.14548,-0.30345 0.22105,-0.54188 0.31487,-0.99348 1.18545,-2.43044 2.01094,-3.31919 1.49842,-1.61326 3.04871,-2.23181 4.81601,-1.92153 2.67181,0.46909 4.81886,1.94514 5.77064,3.96718 0.35171,0.74721 0.45886,0.86361 0.58983,0.64076 0.17327,-0.29485 1.54707,-1.13891 2.12906,-1.3081 1.21387,-0.35288 2.84415,-0.14479 4.20303,0.53647 1.0984,0.55067 2.37736,1.84305 2.97133,3.0025 0.23652,0.4617 0.46304,0.83966 0.50337,0.83992 0.11207,7.1e-4 0.55748,-1.01762 1.56411,-3.57597 0.50425,-1.28155 1.01269,-2.56825 1.12987,-2.85933 0.11717,-0.29109 0.21304,-0.57419 0.21304,-0.62912 0,-0.0549 0.0889,-0.30446 0.19758,-0.55452 0.10867,-0.25006 0.27547,-0.64973 0.37066,-0.88816 0.0952,-0.23843 0.34767,-0.853301 0.56106,-1.366381 0.21338,-0.513081 0.38797,-0.969021 0.38797,-1.013199 0,-0.04418 0.0781,-0.258389 0.17362,-0.476022 0.0955,-0.217633 0.22258,-0.51762 0.28243,-0.666638 0.6627,-1.650018 1.64654,-2.905292 2.65066,-3.381926 0.43882,-0.208298 0.70155,-0.24869 1.61764,-0.24869 1.05135,0 1.1251,0.01592 1.90305,0.410789 1.05384,0.534901 1.73183,1.195878 2.21906,2.163395 0.88816,1.763651 0.86364,4.387692 -0.0649,6.946802 -0.23,0.63389 -1.04744,2.85845 -1.2604,3.43002 -0.21304,0.57179 -0.76621,2.06998 -0.90035,2.43847 -1.10387,3.0325 -1.8471,4.99995 -2.16983,5.74396 -0.0517,0.11921 -0.15687,0.38745 -0.23368,0.59607 -0.15441,0.41938 -0.5246,1.23922 -1.56927,3.47539 -0.38348,0.82085 -0.69724,1.5256 -0.69724,1.5661 0,0.0405 -0.0686,0.22732 -0.15239,0.41515 -0.49857,1.11727 -0.90117,3.35837 -0.76782,4.27405 0.1119,0.76832 0.0791,4.11857 -0.0519,5.30677 -0.39969,3.62405 -1.47745,6.50407 -3.96432,10.5936 -0.38121,0.62687 -1.42709,2.71777 -1.78895,3.57643 -0.0502,0.11921 -0.20274,0.60691 -0.33889,1.08377 -0.23161,0.81124 -0.24803,1.07267 -0.25518,4.06412 -0.007,3.0461 -0.0597,3.94257 -0.2659,4.55182 -0.0504,0.14901 -0.11828,0.39286 -0.15074,0.54188 -0.0325,0.14902 -0.20706,0.43239 -0.388,0.62971 -0.27561,0.30056 -0.3932,0.35332 -0.72476,0.32513 -0.28379,-0.0241 -0.45944,-0.11927 -0.62079,-0.33627 z m -7.95045,-24.33046 c 0.2839,-0.10183 0.68625,-0.32134 0.8941,-0.48781 0.36316,-0.29083 0.37792,-0.33069 0.37792,-1.0207 0,-0.93183 -0.1934,-2.04306 -0.44106,-2.53427 -0.57616,-1.14273 -1.9294,-1.52711 -2.7993,-0.79514 -0.60515,0.50921 -1.74677,2.5656 -1.91136,3.44293 -0.0623,0.33194 -0.0281,0.39641 0.3819,0.72115 1.02463,0.81152 2.3839,1.07338 3.4978,0.67384 z m 2.35624,-1.88649 c 0.20396,-0.2564 0.40922,-0.48245 0.45613,-0.50232 0.0469,-0.0199 0.0853,-0.0799 0.0853,-0.13336 0,-0.0535 0.16415,-0.35423 0.36478,-0.66833 0.42382,-0.66349 1.13347,-2.028 1.33976,-2.57604 0.0785,-0.20863 0.38078,-1.06209 0.67166,-1.89659 0.29088,-0.8345 0.65939,-1.85866 0.81891,-2.27591 0.29906,-0.78225 0.38724,-0.98651 0.98251,-2.27591 0.19263,-0.41725 0.5059,-1.10002 0.69615,-1.51727 0.19025,-0.41725 0.50793,-1.10003 0.70595,-1.51728 0.93962,-1.97984 1.15987,-2.71389 1.22193,-4.07244 0.0657,-1.43873 -0.0994,-2.05922 -0.8441,-3.17272 -0.8651,-1.29342 -1.80027,-1.94846 -3.19519,-2.23804 -2.28633,-0.47464 -3.83848,0.86064 -5.2284,4.49788 -0.18222,0.47686 -0.74717,2.15941 -1.25543,3.73899 -0.81676,2.53837 -1.16136,3.65768 -1.75168,5.68977 -0.17785,0.61226 -0.67048,2.59514 -0.80774,3.2513 -0.0499,0.23843 -0.19787,0.89682 -0.32886,1.46309 -0.39323,1.69988 -0.75524,3.50573 -0.75762,3.77935 -0.002,0.21634 0.0235,0.23572 0.16033,0.1222 0.0894,-0.0742 0.16256,-0.17627 0.16256,-0.22681 0,-0.0505 0.12351,-0.34938 0.27447,-0.66408 0.94473,-1.96947 1.78911,-2.79391 2.86146,-2.79391 0.57366,0 1.49518,0.50923 1.98567,1.09728 0.44891,0.53819 0.68596,1.22589 0.79735,2.31316 0.10991,1.07289 0.15496,1.11747 0.5841,0.57799 z m 2.43934,-8.75555 c -0.24271,-0.26819 -2.50119,-1.37869 -3.7622,-1.84988 -0.94159,-0.35184 -1.16928,-0.5468 -0.94882,-0.81244 0.12032,-0.14498 0.11835,-0.14548 1.68894,0.42812 0.4641,0.1695 1.88336,0.83808 2.26212,1.06565 1.17698,0.70714 1.35471,0.8533 1.35471,1.11402 0,0.33628 -0.31374,0.36505 -0.59475,0.0545 z m -0.74172,-1.88105 c -0.63652,-0.51053 -1.85716,-1.03725 -2.56509,-1.10687 -0.0894,-0.009 -0.24269,-0.0232 -0.34062,-0.032 -0.23465,-0.0211 -0.34617,-0.32914 -0.18812,-0.51957 0.45002,-0.54224 3.99679,1.07667 3.99679,1.82432 0,0.31111 -0.39985,0.23767 -0.90296,-0.16585 z m -11.34359,10.52122 c 0.48742,-0.13398 0.48771,-0.13436 0.52329,-0.67594 0.0525,-0.79996 -0.18328,-2.48533 -0.47897,-3.42306 -0.31824,-1.00927 -1.0277,-1.83472 -1.73016,-2.01302 -1.23627,-0.3138 -2.48006,1.08281 -3.46218,3.88756 l -0.2547,0.72738 0.37428,0.32862 c 1.08798,0.95527 3.64359,1.54911 5.02844,1.16846 z m 1.3291,-1.44683 c 0.28362,-1.54228 0.57279,-2.82355 1.11015,-4.91888 0.0841,-0.32784 0.35287,-1.37638 0.59733,-2.3301 0.24445,-0.95371 0.48593,-1.85595 0.53662,-2.00497 0.0507,-0.14901 0.2661,-0.83179 0.47871,-1.51727 1.39972,-4.51281 2.33296,-7.2162 2.83948,-8.22533 0.16115,-0.32104 0.16839,-0.45672 0.0567,-1.06282 -0.32533,-1.76562 -1.17164,-2.92203 -2.70187,-3.69186 -2.29235,-1.15326 -3.70415,-1.09737 -5.1457,0.20369 -1.55086,1.3997 -2.34369,2.94755 -3.0192,5.89441 -0.20417,0.89068 -0.9268,5.6859 -1.33922,8.88688 -0.14592,1.13253 -0.38709,2.83947 -0.53594,3.79318 -0.27177,1.74135 -0.32717,2.79007 -0.18773,3.55403 0.0413,0.22611 0.11915,0.42119 0.17307,0.43351 0.0539,0.0123 0.18109,-0.22145 0.2826,-0.51949 0.15658,-0.45968 0.66156,-1.49454 1.15759,-2.37221 0.0711,-0.12586 0.34738,-0.44216 0.6139,-0.7029 0.78728,-0.77022 1.78833,-0.90524 2.80679,-0.37858 0.98487,0.5093 1.68703,1.94775 1.92952,3.95284 0.139,1.14938 0.25761,1.493 0.34719,1.00587 z m 0.59865,-11.63493 c -0.5383,-0.20051 -2.45884,-0.61224 -3.3257,-0.71296 -1.32157,-0.15357 -1.4116,-0.17741 -1.47966,-0.39186 -0.0376,-0.11843 -0.0354,-0.24824 0.005,-0.28845 0.32246,-0.32216 5.41365,0.68172 5.76441,1.13662 0.16718,0.21682 0.065,0.4701 -0.18974,0.4701 -0.11061,0 -0.45897,-0.0961 -0.77414,-0.21345 z m 0.10264,-1.56987 c -0.73228,-0.4833 -1.3872,-0.6217 -2.78148,-0.58779 -0.93964,0.0229 -1.1489,-0.002 -1.24004,-0.14632 -0.0774,-0.12275 -0.0678,-0.22424 0.0328,-0.34546 0.199,-0.23978 2.3304,-0.24073 3.15789,-10e-4 1.08834,0.31476 1.89377,1.03536 1.54597,1.38316 -0.10373,0.10373 -0.0938,0.10794 -0.71515,-0.30218 z m -11.68713,13.14797 c 0.54916,-0.17385 0.81573,-0.34196 1.28267,-0.80891 l 0.58945,-0.58945 -0.056,-0.72936 c -0.078,-1.01658 -0.37438,-2.2584 -0.68726,-2.87958 -0.84524,-1.67812 -2.47633,-2.4247 -3.53027,-1.61587 -0.63784,0.48949 -1.70571,2.32044 -1.70571,2.92458 0,0.11115 -0.053,0.25509 -0.11778,0.31987 -0.0648,0.0648 -0.14431,0.50484 -0.17674,0.97791 -0.1006,1.46773 0.26481,1.89924 2.00771,2.37095 1.1427,0.30926 1.49741,0.31368 2.3939,0.0299 z m -26.32429,-2.30479 c 0,-0.29655 -1.60292,-1.87203 -2.53311,-2.48974 -1.03107,-0.68471 -2.20293,-1.22951 -2.33797,-1.08694 -0.17876,0.18873 -0.43937,1.13922 -0.43937,1.60248 0,0.60469 0.19364,0.7721 1.08377,0.93696 0.586,0.10853 3.49317,0.93111 4.0615,1.1492 0.10605,0.0407 0.16518,6.1e-4 0.16518,-0.11196 z m 21.82293,-2.13801 c 0.46056,-1.36442 1.22532,-2.43886 2.04891,-2.87861 0.53967,-0.28815 1.56706,-0.23462 2.29054,0.11934 0.68904,0.33712 1.44524,1.19583 1.88436,2.1398 0.16156,0.34731 0.31998,0.63198 0.35205,0.6326 0.056,0.001 0.30455,-1.4686 0.59536,-3.52111 0.076,-0.53647 0.24969,-1.75571 0.38595,-2.70942 0.27841,-1.94863 0.29951,-2.51918 0.17033,-4.606 -0.18981,-3.06611 -0.58494,-4.53848 -1.62349,-6.04959 -0.66227,-0.96362 -1.07425,-1.31911 -2.13331,-1.84082 -0.81099,-0.3995 -0.816,-0.4004 -2.22172,-0.4 -1.3072,3.7e-4 -1.45192,0.0214 -2.00497,0.29091 -0.79668,0.38828 -1.19848,0.69957 -1.72424,1.33581 -1.6224,1.96333 -2.14528,5.5639 -1.36904,9.42729 0.0838,0.41725 0.25984,1.33286 0.39113,2.03469 0.13129,0.70183 0.2692,1.2949 0.30648,1.31794 0.0373,0.023 -0.0116,-0.89257 -0.10864,-2.03469 -0.097,-1.14212 -0.1889,-2.66181 -0.20416,-3.3771 -0.0153,-0.71528 -0.0421,-1.49559 -0.0597,-1.73402 -0.0414,-0.56264 0.25621,-3.11281 0.37746,-3.23407 0.10413,-0.10412 0.17257,0.0845 0.279,0.76879 0.0394,0.25349 0.0935,0.59488 0.12025,0.75864 0.0267,0.16376 0.11961,1.22436 0.20646,2.3569 0.0868,1.13253 0.22943,2.69316 0.31687,3.46805 0.0874,0.77489 0.18901,1.7259 0.2257,2.11334 0.0367,0.38745 0.16396,1.36284 0.28281,2.16753 0.11884,0.8047 0.26112,1.78009 0.31616,2.16754 0.1335,0.93972 0.43145,2.16753 0.52599,2.16753 0.0418,0 0.20982,-0.39657 0.37343,-0.88127 z m 4.67515,-8.22416 c -1.09365,-0.24206 -1.91657,-0.25113 -3.60124,-0.0397 -0.46912,0.0589 -0.5785,0.0403 -0.63529,-0.10765 -0.15596,-0.40644 0.33029,-0.55536 2.17737,-0.66686 1.16137,-0.0701 3.54637,0.40974 3.66039,0.73645 0.0858,0.24581 -0.0542,0.42552 -0.28894,0.37084 -0.12569,-0.0293 -0.71622,-0.16117 -1.31229,-0.2931 z m 0.0407,-1.35967 c -0.66646,-0.23795 -2.09017,-0.31644 -2.96781,-0.1636 -0.6097,0.10617 -0.76361,0.10253 -0.88715,-0.021 -0.19243,-0.19243 -0.084,-0.47194 0.21821,-0.56269 0.13,-0.039 0.74843,-0.0886 1.37431,-0.1102 1.80872,-0.0624 3.1988,0.33407 2.99881,0.85523 -0.0817,0.21291 -0.14586,0.21311 -0.73637,0.002 z m -6.93975,7.86406 c 0,-0.14902 -0.0246,-0.20998 -0.0547,-0.13547 -0.0301,0.0745 -0.0301,0.19643 0,0.27094 0.0301,0.0745 0.0547,0.0136 0.0547,-0.13547 z m -0.0647,-0.70445 c -0.0285,-0.14902 -0.0705,-0.27094 -0.0933,-0.27094 -0.0229,0 -0.0416,0.12192 -0.0416,0.27094 0,0.14902 0.042,0.27094 0.0934,0.27094 0.0513,0 0.07,-0.12192 0.0416,-0.27094 z m 5.39231,32.96859 c 0,-0.0772 0.22458,-0.50398 0.49906,-0.94829 0.4393,-0.71111 1.28745,-2.15037 1.9014,-3.22657 l 0.20513,-0.35957 -0.76091,-0.82579 c -0.41851,-0.45418 -0.76092,-0.86152 -0.76092,-0.90518 0,-0.0437 0.26824,-0.39361 0.59608,-0.77765 0.32783,-0.38404 0.59607,-0.74293 0.59607,-0.79753 0,-0.0546 -0.317,-0.41346 -0.70445,-0.79746 -0.38745,-0.38401 -0.70445,-0.73711 -0.70445,-0.78468 0,-0.0476 0.25604,-0.42862 0.56898,-0.8468 0.31294,-0.41817 0.56898,-0.77947 0.56898,-0.80288 0,-0.0234 -0.32931,-0.38557 -0.73179,-0.80478 l -0.73179,-0.76221 0.66783,-0.87205 c 0.3673,-0.47962 0.64784,-0.89355 0.62341,-0.91983 -0.0244,-0.0263 -0.65404,-0.66742 -1.39913,-1.42475 l -1.3547,-1.37695 0.9212,-0.25678 c 2.16825,-0.60437 2.58602,-0.71882 3.30548,-0.90548 0.41725,-0.10825 1.95301,-0.51829 3.41279,-0.9112 1.45978,-0.39291 2.70669,-0.69422 2.77091,-0.66957 0.0705,0.0271 0.19077,1.00411 0.30363,2.46718 0.10277,1.3323 0.21411,2.6089 0.24743,2.83689 0.0594,0.40636 0.0684,0.41347 0.45609,0.36085 0.21753,-0.0295 0.85308,-0.0887 1.41232,-0.13158 l 1.01681,-0.0779 -0.0662,-0.82482 c -0.17152,-2.13834 -0.3119,-4.7924 -0.25642,-4.84788 0.14386,-0.14386 10.21226,0.94704 10.39108,1.12586 0.086,0.086 -0.19,0.51167 -1.65892,2.55885 l -0.45709,0.63703 0.72381,0.68572 c 0.3981,0.37715 0.72382,0.7429 0.72382,0.8128 0,0.0699 -0.24385,0.456 -0.54189,0.85803 -0.29803,0.40203 -0.54188,0.77254 -0.54188,0.82336 0,0.0508 0.31664,0.41149 0.70365,0.80148 l 0.70365,0.70909 -0.61922,0.85433 -0.61921,0.85434 0.72839,0.67664 c 0.40061,0.37215 0.72839,0.72078 0.72839,0.77473 0,0.054 -0.26823,0.50346 -0.59607,0.9989 -0.32784,0.49545 -0.59424,0.93197 -0.592,0.97006 0.002,0.0381 0.16073,0.24638 0.35222,0.46288 0.19148,0.2165 0.8404,0.97243 1.44204,1.67984 0.60163,0.70741 1.17467,1.35313 1.27342,1.43494 0.20973,0.17375 0.24182,0.4614 0.0441,0.39511 -0.0745,-0.025 -1.08647,-0.0983 -2.24881,-0.163 -1.16234,-0.0647 -2.40596,-0.13823 -2.7636,-0.16345 -0.78789,-0.0556 -2.49828,-0.18852 -2.87198,-0.22323 -2.37383,-0.22048 -2.8869,-0.28971 -2.98898,-0.4033 -0.10604,-0.118 -0.48687,-3.63597 -0.48365,-4.46782 0.002,-0.5763 -0.10726,-0.63895 -1.0804,-0.61826 -0.48636,0.0103 -1.08246,0.0722 -1.32467,0.13739 l -0.44039,0.11859 0.073,1.2649 c 0.2459,4.26004 0.26634,4.02727 -0.36591,4.1682 -0.14901,0.0332 -0.63671,0.1634 -1.08376,0.2893 -0.44706,0.12589 -0.92375,0.24741 -1.05933,0.27002 -0.13557,0.0226 -0.50135,0.1178 -0.81282,0.21152 -1.17665,0.35402 -2.7088,0.733 -5.70565,1.41129 -0.68077,0.15409 -1.26194,0.30433 -1.29149,0.33388 -0.1087,0.1087 -0.34272,0.0495 -0.34272,-0.0867 z m 1.73402,-0.79817 c 0.26824,-0.081 0.8047,-0.21598 1.19215,-0.30003 0.38744,-0.084 1.28968,-0.30674 2.00496,-0.49486 0.71529,-0.18813 1.56875,-0.4059 1.89659,-0.48395 0.32784,-0.078 0.88869,-0.22491 1.24633,-0.32638 0.35765,-0.10147 0.79141,-0.20448 0.96393,-0.22892 0.17252,-0.0244 0.3676,-0.0877 0.43351,-0.14059 0.0659,-0.0529 0.27321,-0.12892 0.46066,-0.16897 0.4287,-0.0916 0.45192,-0.22919 0.33941,-2.01137 -0.047,-0.74509 -0.0974,-1.81405 -0.11194,-2.37547 l -0.0264,-1.02076 0.32513,-0.085 c 0.4751,-0.12426 2.35467,-0.27144 2.85596,-0.22364 0.33391,0.0319 0.44382,0.0938 0.48672,0.27447 0.0305,0.12833 0.13975,1.20872 0.24283,2.40086 0.10308,1.19214 0.22399,2.26843 0.26868,2.39176 0.0751,0.20723 0.24428,0.23848 2.23185,0.41224 1.18282,0.10341 2.49197,0.20419 2.90922,0.22396 1.12691,0.0534 3.18665,0.17663 3.71035,0.22203 0.25248,0.0219 0.48565,-0.003 0.51817,-0.0558 0.0325,-0.0526 -0.17406,-0.35916 -0.45906,-0.68123 -0.8045,-0.90916 -1.93107,-2.27138 -2.09127,-2.52872 -0.12181,-0.19566 -0.12027,-0.25955 0.01,-0.40265 0.25737,-0.28334 0.35916,-0.4242 0.74591,-1.03225 l 0.37127,-0.58369 -0.26459,-0.21376 c -0.41853,-0.33813 -1.15543,-1.02891 -1.23508,-1.15778 -0.061,-0.0987 0.4036,-0.77393 0.88211,-1.28184 0.36669,-0.38921 0.29729,-0.58094 -0.45807,-1.2656 l -0.73379,-0.6651 0.51406,-0.6983 c 0.83411,-1.13306 0.83457,-1.01478 -0.007,-1.79652 l -0.74064,-0.68796 0.20061,-0.3396 c 0.23883,-0.40431 1.31606,-1.91831 1.5546,-2.18494 0.23536,-0.26306 0.006,-0.51682 -0.46766,-0.51682 -0.19928,0 -0.88827,-0.0722 -1.5311,-0.16049 -0.64283,-0.0883 -1.70524,-0.21069 -2.36092,-0.27205 -0.65567,-0.0614 -1.38722,-0.13411 -1.62564,-0.16165 -0.68257,-0.0789 -2.66632,-0.27283 -2.79028,-0.27283 -0.11531,0 -0.0783,1.10026 0.13288,3.95575 0.0573,0.77489 0.10565,1.49424 0.10738,1.59855 0.003,0.16399 -0.11054,0.19063 -0.83675,0.1968 -0.46196,0.004 -1.27885,0.0706 -1.81531,0.1482 -0.53647,0.0776 -1.00772,0.12288 -1.04724,0.10066 -0.096,-0.0539 -0.18582,-0.66431 -0.2531,-1.71908 -0.0304,-0.47686 -0.077,-0.98894 -0.10344,-1.13796 -0.0265,-0.14901 -0.078,-0.78165 -0.11461,-1.40586 -0.0366,-0.6242 -0.11396,-1.19214 -0.17201,-1.26209 -0.0709,-0.0855 -0.21983,-0.0979 -0.45391,-0.0379 -0.19159,0.0491 -0.64097,0.16639 -0.99861,0.26062 -0.35764,0.0942 -0.84534,0.21713 -1.08377,0.27309 -0.23843,0.056 -0.79928,0.2016 -1.24633,0.32365 -0.44705,0.12205 -1.10544,0.30182 -1.46308,0.39949 -0.35765,0.0977 -1.11357,0.31508 -1.67984,0.48311 -0.56627,0.16804 -1.19617,0.33431 -1.39978,0.36948 -0.43003,0.0743 -0.551,0.13569 -0.551,0.27967 0,0.0572 0.53816,0.64469 1.19591,1.30557 1.03589,1.04083 1.17728,1.225 1.05667,1.37638 -0.0766,0.0961 -0.21239,0.26764 -0.3018,0.38116 -0.0894,0.11351 -0.24088,0.28575 -0.3366,0.38275 -0.0957,0.097 -0.26197,0.31374 -0.36943,0.48163 l -0.19538,0.30527 0.77514,0.78035 0.77515,0.78036 -0.24316,0.2727 c -0.28074,0.31485 -0.87113,1.07184 -0.98454,1.26236 -0.0476,0.0799 0.2156,0.40987 0.68426,0.85785 0.41886,0.40038 0.76157,0.77399 0.76157,0.83024 0,0.0563 -0.0956,0.20668 -0.21235,0.33429 -0.50046,0.54684 -0.9797,1.18297 -0.97859,1.29896 6.6e-4,0.0689 0.32142,0.47848 0.7128,0.91025 l 0.7116,0.78504 -0.35219,0.62386 c -0.1937,0.34312 -0.49008,0.82772 -0.65861,1.07689 -0.16853,0.24917 -0.30642,0.48549 -0.30642,0.52515 0,0.0397 -0.0918,0.20157 -0.20407,0.35979 -0.39563,0.55774 -0.67516,1.13151 -0.58827,1.20756 0.0483,0.0423 0.30735,0.0107 0.57558,-0.0703 z m 0.65026,-0.99535 c 0,-0.0504 0.0975,-0.17985 0.21676,-0.28774 0.11921,-0.10789 0.21675,-0.24062 0.21675,-0.29497 0,-0.0543 0.11575,-0.25406 0.25723,-0.4438 0.14148,-0.18975 0.38982,-0.58884 0.55187,-0.88688 0.16205,-0.29804 0.33891,-0.58821 0.39303,-0.64484 0.2078,-0.21745 0.0746,-0.46879 -0.60606,-1.14337 -0.38745,-0.38401 -0.70445,-0.7416 -0.70445,-0.79466 0,-0.0849 0.68385,-0.96132 1.05619,-1.35352 0.24432,-0.25736 0.14604,-0.45085 -0.56849,-1.11926 -0.38745,-0.36243 -0.70445,-0.71467 -0.70445,-0.78274 0,-0.0681 0.21757,-0.36729 0.48349,-0.66493 0.85597,-0.95807 0.85557,-0.92955 0.0246,-1.76696 -0.39865,-0.40173 -0.72482,-0.76073 -0.72482,-0.79778 0,-0.037 0.26823,-0.41452 0.59607,-0.83883 0.32784,-0.42431 0.59607,-0.81331 0.59607,-0.86444 0,-0.0511 -0.37796,-0.45093 -0.83992,-0.88845 -0.46195,-0.43751 -0.92688,-0.90458 -1.03317,-1.03792 -0.19246,-0.24144 -0.19134,-0.24297 0.27094,-0.36842 0.25531,-0.0693 0.58612,-0.16468 0.73514,-0.21199 0.14901,-0.0473 0.66109,-0.18884 1.13795,-0.3145 0.47686,-0.12566 1.33032,-0.35613 1.89659,-0.51214 1.61834,-0.44588 2.27003,-0.5691 2.34744,-0.44384 0.0375,0.0606 0.0816,0.28641 0.0981,0.5017 0.0904,1.18027 0.28069,3.59319 0.31293,3.96787 0.0205,0.23843 0.0422,0.56762 0.0483,0.73154 0.0125,0.33965 0.17136,0.36907 1.0594,0.19624 1.51246,-0.29436 2.11635,-0.35311 3.61251,-0.35141 l 1.63629,0.002 -0.0606,-0.72262 c -0.1325,-1.5797 -0.27023,-3.26013 -0.3374,-4.11653 l -0.0707,-0.90125 0.36414,0.0624 c 0.20027,0.0343 0.9006,0.11038 1.55628,0.16907 2.57894,0.23082 4.66467,0.47204 4.75394,0.54979 0.0516,0.0449 -0.27763,0.57963 -0.73154,1.18826 -0.45391,0.60864 -0.82529,1.15246 -0.82529,1.20848 0,0.22585 0.22905,0.49855 0.80435,0.95761 0.3325,0.26532 0.60454,0.52465 0.60454,0.57629 0,0.0516 -0.10973,0.22598 -0.24384,0.38742 -0.13412,0.16144 -0.34139,0.42992 -0.4606,0.59663 -0.11922,0.1667 -0.27772,0.36737 -0.35223,0.44591 -0.24235,0.25549 -0.14659,0.43512 0.56898,1.06726 0.38744,0.34227 0.70445,0.66814 0.70445,0.72415 0,0.056 -0.26824,0.45145 -0.59607,0.87876 -0.32784,0.4273 -0.59608,0.81271 -0.59608,0.85646 0,0.0438 0.25604,0.28698 0.56898,0.54052 0.98599,0.79885 0.98734,0.80159 0.65766,1.32801 -0.15601,0.2491 -0.31649,0.4773 -0.35664,0.5071 -0.0401,0.0298 -0.10531,0.12734 -0.14483,0.21675 -0.0395,0.0894 -0.14638,0.26438 -0.23748,0.38882 -0.15441,0.21093 -0.13822,0.26229 0.2392,0.75864 0.53264,0.70048 0.98148,1.21012 1.41355,1.60504 0.19372,0.17706 0.35223,0.36119 0.35223,0.40917 0,0.048 -0.40235,0.0644 -0.89411,0.0364 -0.49176,-0.028 -1.35742,-0.0756 -1.92369,-0.10586 -1.81119,-0.0968 -3.84446,-0.29469 -3.93946,-0.38343 -0.11047,-0.10317 -0.23286,-1.1835 -0.39887,-3.52077 -0.0758,-1.06743 -0.17168,-1.7667 -0.24958,-1.82043 -0.0695,-0.048 -0.95555,-0.0658 -1.96887,-0.0396 -1.86449,0.0482 -3.66521,0.3268 -4.02107,0.62213 -0.17424,0.14461 -0.1817,0.51874 -0.0377,1.88735 0.0502,0.47686 0.11782,1.46362 0.15029,2.19281 l 0.059,1.32581 -0.29703,0.0705 c -0.16336,0.0388 -1.27241,0.32765 -2.46455,0.64192 -3.53412,0.93168 -3.95575,1.01964 -3.95575,0.82526 z m 2.70942,-0.88654 c 0.92391,-0.23214 2.11863,-0.53681 2.65494,-0.67704 l 0.97511,-0.25497 -0.0224,-0.80606 c -0.0123,-0.44333 -0.0727,-1.48882 -0.13424,-2.32332 -0.17566,-2.38302 -0.18532,-2.30287 0.29266,-2.42892 1.55313,-0.40958 2.71242,-0.55805 4.43964,-0.56859 2.08602,-0.0127 2.0808,-0.0152 2.10403,0.98616 0.008,0.33135 0.027,0.72437 0.043,0.87339 0.14419,1.34544 0.26611,2.62864 0.28679,3.01844 0.0193,0.36306 0.0761,0.49042 0.24704,0.55346 0.22305,0.0823 1.36465,0.22445 2.17279,0.27061 0.23843,0.0136 1.05531,0.0643 1.8153,0.11261 0.99868,0.0635 1.38181,0.0542 1.38181,-0.0333 0,-0.0667 -0.33232,-0.50082 -0.73848,-0.96482 -0.67698,-0.77337 -0.74918,-0.90333 -0.86701,-1.56057 -0.0707,-0.39432 -0.12891,-0.95517 -0.12936,-1.24633 -4.5e-4,-0.29116 -0.0459,-0.822 -0.1011,-1.17965 -0.0552,-0.35764 -0.12708,-1.11357 -0.15984,-1.67983 -0.0327,-0.56627 -0.13345,-1.95474 -0.22376,-3.08549 -0.0903,-1.13075 -0.13439,-2.15491 -0.0979,-2.27591 0.0364,-0.121 0.32894,-0.57203 0.65,-1.0023 0.55397,-0.74242 0.68553,-1.00583 0.50245,-1.00598 -0.0447,-3e-5 -0.93475,-0.0941 -1.97787,-0.20904 -1.04313,-0.11493 -2.2578,-0.23972 -2.69928,-0.27731 l -0.80268,-0.0683 0.0773,1.60499 c 0.0425,0.88275 0.094,1.7513 0.1145,1.93012 0.0205,0.17883 0.0696,0.7246 0.10912,1.21283 l 0.0719,0.8877 -1.28031,-0.0311 c -1.5008,-0.0364 -2.43028,0.044 -4.19691,0.36296 -1.01428,0.18313 -1.30887,0.20408 -1.3746,0.0977 -0.0981,-0.15867 -0.15764,-0.81744 -0.37815,-4.18111 -0.0435,-0.66378 -0.1264,-1.15364 -0.20645,-1.22007 -0.0934,-0.0775 -0.40772,-0.0327 -1.04283,0.14869 -0.50001,0.14282 -1.517,0.41611 -2.25999,0.6073 -1.29366,0.33291 -2.17222,0.64003 -2.17058,0.7588 4.3e-4,0.0306 0.36722,0.41707 0.8151,0.85873 0.44788,0.44165 0.83482,0.90496 0.85988,1.02957 0.0251,0.12462 0.10073,1.17758 0.16816,2.33991 0.0674,1.16234 0.13787,2.28404 0.15653,2.49267 0.0187,0.20862 0.0656,0.89139 0.10439,1.51727 0.0387,0.62587 0.12184,1.66599 0.18464,2.31136 0.0869,0.89249 0.0828,1.24924 -0.017,1.49018 -0.0722,0.17422 -0.17407,0.31677 -0.22644,0.31677 -0.0524,0 -0.0952,0.0438 -0.0952,0.0973 0,0.0535 -0.19508,0.4184 -0.43351,0.81086 -0.23843,0.39247 -0.4335,0.73884 -0.4335,0.76972 0,0.0822 0.014,0.0793 1.8424,-0.38009 z m 0.17674,-3.16729 c -0.0353,-0.19372 -0.0893,-0.83992 -0.12015,-1.43599 -0.0308,-0.59607 -0.10971,-1.68452 -0.17534,-2.41878 -0.0656,-0.73426 -0.0947,-1.35967 -0.0645,-1.38979 0.0778,-0.0779 1.23606,0.9536 1.31777,1.17355 0.0455,0.12248 -0.11252,0.40667 -0.4791,0.86158 -0.30085,0.37335 -0.547,0.71789 -0.547,0.76564 0,0.0477 0.31615,0.38583 0.70256,0.75129 l 0.70255,0.66447 -0.45871,0.55466 c -0.25228,0.30506 -0.50747,0.61376 -0.56708,0.686 -0.17344,0.21021 -0.24256,0.16295 -0.31095,-0.21263 z m 12.90879,-1.34937 c -0.37203,-0.33981 -0.69259,-0.65656 -0.71236,-0.7039 -0.0198,-0.0473 0.19815,-0.36674 0.48426,-0.70978 0.28612,-0.34304 0.53476,-0.64485 0.55254,-0.67068 0.1179,-0.17124 0.23383,0.29532 0.28208,1.13519 0.031,0.53892 0.0894,1.11196 0.12997,1.27343 0.0405,0.16146 0.0436,0.29357 0.007,0.29357 -0.0368,0 -0.37126,-0.27802 -0.74329,-0.61783 z m -0.92383,-3.61536 c 0.0169,-0.0452 0.27221,-0.39138 0.56743,-0.76936 l 0.53676,-0.68722 0.0709,0.34337 c 0.039,0.18886 0.10574,0.81784 0.1483,1.39774 l 0.0774,1.05436 -0.71573,-0.62838 c -0.39365,-0.34561 -0.70193,-0.66533 -0.68506,-0.71051 z m -12.4277,-1.3753 c -0.1163,-1.44202 -0.11664,-1.68608 -0.002,-1.72501 0.061,-0.0208 0.38966,0.24387 0.73034,0.58813 l 0.61941,0.62595 -0.55315,0.67542 c -0.30423,0.37149 -0.59215,0.67543 -0.63981,0.67543 -0.0477,0 -0.11715,-0.37796 -0.1544,-0.83992 z m 12.18742,-1.46252 c 0,-0.053 0.14573,-0.27603 0.32384,-0.49555 0.17811,-0.21951 0.41776,-0.52104 0.53255,-0.67006 0.1148,-0.14902 0.23274,-0.24656 0.26209,-0.21675 0.0294,0.0298 0.082,0.3468 0.11705,0.70444 0.035,0.35765 0.095,0.9641 0.13329,1.34767 l 0.0696,0.6974 -0.71922,-0.63537 c -0.39557,-0.34945 -0.71922,-0.67875 -0.71922,-0.73178 z m 15.12628,-18.24266 c -0.0937,-0.0937 -0.17031,-0.21151 -0.17031,-0.26186 0,-0.13414 -2.31973,-1.54037 -3.25791,-1.97496 -0.9645,-0.44678 -1.19255,-0.66685 -0.94625,-0.91315 0.14971,-0.1497 0.32336,-0.0856 1.72471,0.63648 2.55072,1.31434 3.5006,2.07433 3.13829,2.51089 -0.17982,0.21667 -0.27396,0.21717 -0.48853,0.003 z m 2.15979,-9.89984 c -0.71529,-0.35288 -1.63015,-0.78899 -2.03302,-0.96914 -0.73559,-0.32892 -0.96952,-0.57819 -0.74928,-0.79842 0.12876,-0.12876 1.3236,0.35512 3.32418,1.3462 1.06054,0.52539 1.4054,0.78466 1.29065,0.97033 -0.12552,0.2031 -0.59036,0.0638 -1.83253,-0.54897 z m 0.58885,-0.9279 c -0.52865,-0.26703 -1.2414,-0.58401 -1.58391,-0.70439 -0.3425,-0.12038 -0.69591,-0.29205 -0.78535,-0.3815 -0.14459,-0.14458 -0.14263,-0.18262 0.0177,-0.34291 0.16813,-0.16812 0.24826,-0.15239 1.18828,0.23335 1.9925,0.81762 2.56401,1.17406 2.43241,1.51702 -0.0929,0.24201 -0.21421,0.21127 -1.26908,-0.32157 z m 3.59957,-6.59397 c -0.11909,-0.1435 -0.8754,-0.40908 -2.40005,-0.8428 -0.77878,-0.22154 -1.66283,-0.73072 -1.77465,-1.02212 -0.0292,-0.076 0.006,-0.21919 0.0786,-0.31822 0.12174,-0.16649 0.15179,-0.16433 0.39897,0.0288 0.48607,0.37971 1.16058,0.66556 2.22002,0.94083 1.22068,0.31716 1.73346,0.54044 1.94951,0.84888 0.2575,0.36765 -0.18591,0.70992 -0.47244,0.36467 z"
       id="path1" /><path
       style="fill:#43d876;fill-opacity:1;stroke-width:0.0836882"
       d="m 152.05087,135.05204 c 1.74843,0.15688 3.49718,0.33069 5.23786,0.5559 0.21555,0.24158 -0.23008,0.53409 -0.30647,0.77493 -0.27284,0.46884 -0.69119,0.89365 -0.87834,1.38395 0.23861,3.23843 0.3793,6.49434 0.83584,9.70571 0.2987,0.86664 1.12547,1.43444 1.55509,2.21332 -0.40668,0.19271 -0.97834,-0.0119 -1.44503,0.0336 -1.35918,-0.0796 -2.74625,-0.0908 -4.07593,-0.39055 -0.40306,-0.35467 -0.19534,-1.00041 -0.32819,-1.46935 -0.1609,-1.24779 -0.15341,-2.52205 -0.36894,-3.7587 -1.23224,-0.19955 -2.5489,-0.12487 -3.80438,-0.0775 -0.9413,0.11948 -1.91238,0.22717 -2.79668,0.59301 -0.30244,0.35567 0.0149,0.98297 -0.0473,1.44397 0.07,1.29634 0.1955,2.59159 0.19665,3.89049 -0.54871,0.32976 -1.28496,0.37398 -1.91099,0.58118 -1.17298,0.2891 -2.34039,0.61885 -3.51958,0.87257 -0.24577,-0.20975 0.14558,-0.5463 0.2195,-0.7804 0.37776,-0.69854 1.02995,-1.36029 0.86583,-2.22436 -0.26075,-3.02961 -0.37719,-6.0799 -0.6785,-9.10664 -0.0809,-0.58863 -0.69528,-0.90762 -1.0291,-1.35144 -0.17142,-0.21011 -0.73999,-0.5926 -0.36287,-0.86924 1.63248,-0.60603 3.34774,-0.98084 5.03143,-1.42351 0.46825,-0.0574 0.38985,0.63787 0.46584,0.92711 0.18308,1.50352 0.15927,3.03991 0.44688,4.52308 0.48065,0.14495 1.02135,-0.13137 1.51914,-0.15724 1.70549,-0.35131 3.46906,-0.17802 5.1813,-0.35666 -0.13001,-1.83002 -0.34607,-3.68419 -0.31759,-5.50936 0.096,-0.0484 0.21031,-0.0202 0.31449,-0.0239 z m 3.06883,3.62327 c -0.3866,0.37721 -0.67948,0.8366 -1.00769,1.26251 0.40718,0.48007 1.05272,0.83566 1.28475,1.43577 -0.24082,0.52548 -0.83071,0.90023 -0.95784,1.46667 0.30627,0.45945 0.80029,0.77061 1.20188,1.14548 -0.16464,-1.40834 -0.22911,-2.82635 -0.35813,-4.239 -0.0534,-0.33682 -0.0586,-0.81871 -0.16297,-1.07143 z m -13.19182,1.12864 c -0.0574,0.77095 -0.008,1.56833 0.12438,2.32872 0.40285,-0.38251 0.77951,-0.79731 1.09841,-1.25303 -0.41019,-0.33926 -0.76683,-0.82376 -1.22279,-1.07569 z m 0.1216,2.88479 c 0.0258,0.84623 0.08,1.76952 0.14842,2.56279 0.30123,-0.51831 0.89666,-0.94081 0.97124,-1.56033 -0.25857,-0.4461 -0.71161,-0.77645 -1.11933,-1.07144 z m 13.53427,1.72198 c -0.35298,0.38255 -0.7062,0.79092 -0.95963,1.24666 0.37354,0.46229 0.81666,0.85305 1.27379,1.23325 -0.0769,-0.83182 -0.0976,-1.68449 -0.29536,-2.49658 z m -13.36444,1.24421 c 0.0874,0.77976 0.0628,1.59459 0.24453,2.35258 0.41764,-0.36695 0.7288,-0.84027 1.09759,-1.25401 -0.45059,-0.46495 -0.92868,-0.91287 -1.36255,-1.38821 0.007,0.0966 0.0136,0.19309 0.0204,0.28964 z"
       id="path2" /><path
       style="fill:#ffffff;fill-opacity:1;stroke-width:0.387279"
       d="m 662.42964,353.3956 c -6.19323,-0.40259 -10.57394,5.06442 -13.20908,9.9868 -6.85218,14.56192 -11.68794,29.9862 -18.11116,44.72204 -0.61739,1.42194 -1.1975,2.82156 -2.07423,4.09021 -3.18759,-5.64674 -7.41795,-10.97896 -13.18487,-14.15383 -6.57853,-3.31126 -15.16945,-3.94773 -21.24553,0.80986 -1.09837,0.53089 -2.22704,2.0071 -3.36029,2.01682 -3.49199,-6.98291 -9.34365,-13.04782 -16.86326,-15.58192 -5.87785,-2.33774 -12.97258,-3.12581 -18.51223,0.51814 -8.22883,4.97445 -12.80688,13.97584 -15.92834,22.74128 -0.41665,1.04819 -0.39357,-1.15395 -0.81768,-1.35926 -2.87845,-6.52261 -6.55448,-13.16625 -12.96636,-16.80793 -5.91585,-3.96462 -13.427,-4.01676 -20.20421,-2.8979 -9.24402,2.0127 -15.59847,10.42729 -17.95587,19.19367 -2.71313,8.84446 -2.33044,18.24428 -0.73992,27.25718 1.6785,10.59597 3.99173,21.12933 3.55402,31.90873 -0.0904,1.01832 0.39707,3.46798 -1.41893,2.50906 -12.81154,-7.04582 -22.93129,-18.30109 -36.24551,-24.61131 -8.53363,-4.35079 -18.03839,-7.69285 -27.75711,-6.57372 -7.44648,0.61292 -15.3107,3.10263 -20.01,9.27823 -3.79879,5.14067 -6.83031,11.12772 -7.77622,17.50301 -0.5782,3.70158 0.34414,8.25613 4.16779,9.83779 4.36464,1.93107 9.24836,2.29173 13.69771,4.04071 6.2459,2.26056 12.87842,3.98149 18.32993,7.88324 8.39799,6.36103 12.84742,16.13243 17.64614,25.17917 6.91293,13.01551 17.76305,24.04738 31.1298,30.41423 6.03679,3.29724 13.61323,5.16106 17.53344,11.28479 5.51564,9.63363 4.3769,21.01956 5.04446,31.70466 1.71602,2.02052 5.8614,1.40692 6.11098,-1.5597 1.0797,-10.73326 -0.0229,-21.98305 -4.63978,-31.83552 -2.38057,-5.16296 -7.01765,-8.80425 -12.1603,-10.98595 -9.33088,-4.5374 -18.94472,-9.12382 -26.1779,-16.78407 -12.15316,-12.05493 -15.59375,-30.52818 -29.13528,-41.46286 -2.89914,-2.71454 -6.87824,-3.94044 -9.74551,-6.63139 -3.28721,-6.77887 -8.81086,-12.24935 -15.29153,-16.02061 -2.03754,-1.42467 -4.72773,-2.21662 -6.36355,-4.07099 2.1861,-5.3769 7.42162,-9.31772 13.10589,-10.38214 8.20666,-2.25936 17.02771,-0.97704 24.66512,2.64294 7.33068,3.31742 14.42735,7.39865 20.57873,12.5991 0.9267,0.93226 -0.88257,1.99133 -1.25109,2.86298 -1.76851,2.83758 -3.82972,6.03783 -3.65116,9.48455 0.84757,1.49588 2.29012,-0.39585 2.56648,-1.34261 1.58789,-2.81796 2.66389,-6.28943 5.2154,-8.36356 5.72835,3.8304 11.17769,8.12591 17.16507,11.58962 2.92808,1.53527 5.6991,3.84497 8.98986,4.45522 1.40997,-1.42747 1.06281,-3.99596 1.62202,-5.87043 0.68077,-3.64484 0.80306,-7.80687 1.30148,-11.21825 0.92448,5.84153 2.32283,11.6843 4.30696,17.26341 2.8682,5.98946 10.07906,8.1833 16.24453,8.42709 4.83592,0.18669 9.50974,-1.82138 12.98064,-5.12766 1.05389,-0.0177 1.29402,2.00148 2.18961,2.64883 5.51119,6.97659 14.7705,9.58198 23.33751,9.51112 2.73401,-0.10007 5.376,-0.8636 8.01636,-1.50827 4.96535,4.80151 11.13874,9.88688 18.4971,9.30603 4.17671,0.51766 8.06498,-1.38981 11.21839,-3.97138 9.28776,-6.55394 13.74509,-17.49804 17.75187,-27.70227 3.60998,-10.68308 8.2234,-20.92353 13.06385,-31.10408 2.90371,-5.86794 3.94232,-12.3769 7.05346,-18.13553 7.98344,-18.03593 14.02529,-36.86227 21.87898,-54.9429 2.22234,-4.71298 8.013,-8.31926 13.1637,-5.92188 5.0782,2.09278 7.89556,7.5679 7.79474,12.8997 0.55365,10.76467 -5.12403,20.49315 -8.40418,30.51767 -5.67346,15.56157 -11.58236,31.01822 -18.7758,45.94543 -3.02534,6.1449 -4.82802,12.87413 -4.7395,19.75297 -0.46149,9.0978 0.17009,18.33248 -1.15428,27.3092 -2.19641,11.84632 -7.75543,22.66971 -13.83056,32.95902 -4.00874,7.94326 -9.24791,15.91518 -9.25594,25.13673 -0.43539,8.13216 -0.26945,16.32369 -0.7435,24.42833 -0.63949,2.42163 -1.88447,4.81861 -2.1449,7.25575 1.17965,1.5525 3.59392,3.38338 5.33038,1.47952 4.44499,-4.45248 3.29316,-11.37103 3.72439,-17.06866 0.4031,-6.81158 -0.25625,-13.74091 1.06516,-20.45955 4.60939,-14.41754 14.6853,-26.4085 19.30329,-40.86225 3.53407,-9.85792 4.36039,-20.3946 4.11145,-30.79187 -0.14279,-7.98702 -0.21581,-16.26642 3.27496,-23.66788 5.00271,-11.38933 10.33985,-22.65096 14.41796,-34.42673 4.43021,-12.24798 9.22937,-24.38832 13.10833,-36.8212 1.57601,-8.07403 1.69189,-17.47768 -3.99533,-24.07331 -3.39556,-3.81711 -8.30711,-6.92985 -13.61525,-6.26209 -0.26727,0.002 -0.53453,0.004 -0.8018,0.007 z m -96.36584,36.26427 c 5.33612,0.15527 10.4679,2.88359 14.49724,6.33866 3.58691,3.34503 5.23329,8.42228 5.54387,13.1142 -6.17395,14.609 -10.46406,29.93218 -14.86619,45.14427 -2.50954,9.33816 -4.85273,18.76319 -6.77244,28.22192 -1.43971,-6.30356 -1.52012,-14.00737 -7.05876,-18.39498 -3.30833,-2.71127 -8.51514,-2.80999 -11.56163,0.36988 -3.9122,3.53781 -5.75008,9.21411 -7.97022,13.46475 -1.8145,-5.12664 -0.0324,-10.66358 0.40646,-15.89965 2.36066,-15.97791 4.05204,-32.08273 7.2975,-47.90604 1.64284,-8.07325 5.0562,-16.16107 11.65544,-21.42441 2.35936,-2.3318 5.61421,-3.16787 8.82873,-3.0286 z m -53.1124,3.63451 c 2.96724,0.10829 6.13794,-0.61774 8.63511,1.41675 7.57291,3.67685 11.34033,12.15707 12.6672,20.06761 1.20876,8.95053 1.24338,18.18325 0.37832,27.17637 -1.12533,7.41729 -2.03711,15.36208 -3.61165,22.42837 -2.60382,-4.37676 -5.57632,-9.88451 -11.14652,-10.67149 -3.01239,-0.68127 -6.32449,-0.10216 -8.42392,2.31777 -3.38861,3.18622 -4.76464,7.99491 -6.70325,11.88385 -2.49577,-9.26057 -3.15985,-18.90628 -4.37585,-28.39744 -1.31804,-10.33566 -1.56151,-20.8148 -3.38107,-31.07707 -0.85533,-1.48518 -1.38918,0.92402 -1.36228,1.6656 -1.87855,11.3491 -0.15702,22.86065 0.12481,34.24996 -2.41146,-11.39344 -4.93888,-23.22483 -1.78285,-34.70682 1.64094,-6.94232 6.09209,-13.89711 13.1584,-16.14544 1.92152,-0.30259 3.88657,-0.16591 5.82355,-0.20802 z m 92.88336,8.37718 c 8.10422,-0.1265 14.97916,6.53851 17.4646,13.87622 0.41762,5.66196 0.66121,11.6231 -1.95051,16.85852 -5.1283,11.69882 -10.9176,23.20017 -14.89291,35.39794 -2.95424,7.46055 -5.72626,15.43176 -11.48541,21.22514 -1.24579,-3.72494 -0.94686,-8.27135 -3.60805,-11.54272 -2.65194,-3.7255 -8.44568,-6.42604 -12.41107,-3.07629 -3.92872,3.1965 -5.6421,8.15115 -8.26674,12.26735 1.3347,-9.6148 3.8836,-19.03564 6.1365,-28.47333 3.75844,-13.94348 8.09286,-27.77569 13.12098,-41.32467 2.34237,-5.46889 5.15181,-11.82392 10.98203,-14.39049 1.56015,-0.60177 3.24674,-0.81081 4.91058,-0.81767 z m -87.9395,54.2107 c 5.77886,0.31541 9.72957,6.06642 10.79463,11.32034 0.60512,3.19491 1.87098,6.57961 0.95988,9.7697 -3.41878,4.39709 -9.54417,6.7771 -14.90273,4.70692 -2.79023,-0.97242 -7.10435,-1.58422 -7.63129,-5.14639 -1.15042,-6.72098 1.89578,-13.60836 6.30084,-18.5455 1.13433,-1.3217 2.71843,-2.16364 4.47867,-2.10507 z m -112.15576,3.92573 c 7.08831,2.40221 13.24521,7.23223 17.7127,13.16596 -0.28763,0.65598 -1.79836,-0.18432 -2.37737,-0.2012 -5.46691,-1.93345 -11.34413,-2.77949 -16.65601,-5.06185 -0.68984,-2.5718 -0.32314,-5.72875 1.2579,-7.90367 z m 146.33008,4.74417 c 4.71745,0.27059 7.11434,5.37554 8.11545,9.39075 0.76726,4.14047 1.79923,8.50714 1.01888,12.70607 -2.69287,1.58936 -6.17716,1.01367 -9.21617,0.72095 -4.31568,-0.8415 -9.23956,-1.96367 -12.14921,-5.53395 1.03842,-4.8294 3.33291,-9.50073 6.25168,-13.48743 1.48358,-1.84379 3.41414,-3.88182 5.97937,-3.79639 z m 31.449,11.04122 c 4.22276,-0.0464 7.30994,3.77468 7.70699,7.76751 0.3405,2.94438 1.53334,6.38915 -0.0265,9.15627 -4.97075,4.75126 -13.41821,3.5202 -18.072,-1.04081 -0.72605,-2.52433 1.15523,-5.04055 2.08432,-7.31336 1.97065,-3.33367 3.90318,-8.11846 8.30716,-8.56961 z"
       id="path8"
       transform="scale(0.26458333)" /><path
       style="fill:#ffffff;fill-opacity:1;stroke-width:0.119506"
       d="m 565.41879,503.86389 c -0.30854,0.84696 -0.0754,1.82923 -0.12886,2.7334 0.1797,6.24693 0.72654,12.47507 1.14933,18.70804 -3.1628,0.28324 -6.34299,0.56356 -9.49672,0.83864 -0.66543,0.12064 -0.53639,-0.72155 -0.64794,-1.12807 -0.74391,-6.41014 -0.96064,-12.94146 -1.89552,-19.35802 0.0151,-0.6144 -0.56317,-0.97064 -1.1276,-0.82114 -3.52968,0.62528 -6.97304,1.67419 -10.45045,2.53684 -9.40262,2.49886 -18.81309,4.98059 -28.16266,7.66968 -0.63671,0.47846 0.25271,1.0593 0.54524,1.44944 3.02446,3.2785 6.30369,6.35342 9.26028,9.66294 -1.3802,2.24995 -3.18631,4.29504 -4.68512,6.482 -0.0334,0.68939 0.86114,1.06549 1.2152,1.61368 1.37314,1.49853 2.87681,2.88887 4.14284,4.47994 -1.34715,2.04327 -2.96687,3.91516 -4.17009,6.04786 -0.0358,0.72048 0.77947,1.14261 1.1472,1.68848 1.32123,1.50179 2.87954,2.83519 4.05689,4.44201 -0.85903,1.51083 -2.1449,2.7482 -3.18475,4.13877 -0.37174,0.6355 -1.2164,1.1602 -1.18421,1.95718 1.33819,1.91011 3.03612,3.55531 4.57558,5.3068 0.277,0.42442 0.93104,0.80506 0.95952,1.26968 -2.89207,5.17644 -6.02854,10.20426 -8.96434,15.35815 -0.29981,0.67205 -1.1019,1.66764 -0.28873,2.29091 0.86954,0.46237 1.7756,-0.328 2.65498,-0.42449 8.61653,-2.12288 17.35073,-3.9577 25.88116,-6.41557 3.84445,-1.05062 7.75641,-1.91444 11.57313,-3.07049 1.03546,-0.568 0.93773,-1.94499 1.0169,-2.96335 -0.074,-5.76997 -0.56816,-11.52597 -0.82481,-17.28957 2.92216,-0.8752 6.01804,-0.93844 9.02617,-0.73664 0.5716,0.014 1.01132,0.49079 0.92173,1.07241 0.38379,5.71722 0.81693,11.44732 1.77274,17.10153 0.0637,1.01233 1.16685,1.30222 1.99775,1.38038 7.06699,0.96922 14.19578,1.39314 21.30619,1.9163 6.19732,0.43906 12.44026,0.69734 18.60398,1.21325 0.81144,-0.2229 0.46065,-1.25663 0.0305,-1.68469 -3.92776,-4.45408 -7.85142,-8.91798 -11.63612,-13.49684 -0.21158,-0.43359 0.40162,-0.91077 0.56839,-1.34828 1.17443,-2.00243 2.63169,-3.85391 3.61131,-5.96243 0.24661,-0.82038 -0.73741,-1.29455 -1.14194,-1.86389 -1.31791,-1.36517 -2.73163,-2.65073 -4.03624,-4.01242 1.43536,-2.07998 2.98544,-4.08101 4.39252,-6.17951 0.0998,-0.69745 -0.76572,-1.03738 -1.09725,-1.5573 -1.35491,-1.46308 -2.87687,-2.79167 -4.07183,-4.3923 1.19098,-2.03612 2.82821,-3.80047 3.89654,-5.91529 0.34911,-0.92117 -0.72771,-1.50367 -1.19342,-2.13499 -1.26615,-1.36833 -2.77193,-2.65945 -3.93132,-4.03331 2.52607,-3.68999 5.30478,-7.21627 7.60961,-11.05262 0.36322,-0.44094 0.38253,-1.27613 -0.33681,-1.33884 -5.40681,-0.99427 -10.89152,-1.49727 -16.34704,-2.15157 -7.53193,-0.80802 -15.06464,-1.65733 -22.62739,-2.12239 -0.0948,0.0319 -0.18968,0.0638 -0.28453,0.0957 z m 2.90595,2.6597 c 5.41732,0.39041 10.85496,1.06622 16.27527,1.58238 5.08636,0.51624 10.16802,1.20482 15.24788,1.71627 0.39145,0.0694 1.27024,0.20174 1.13149,0.77621 -1.02233,1.80643 -2.44165,3.36135 -3.58246,5.09589 -1.14284,1.6579 -2.35456,3.30363 -3.28658,5.07986 0.0222,0.65129 0.8648,0.94933 1.24054,1.44219 1.27149,1.23587 2.65043,2.39162 3.77547,3.76045 0.28693,0.92893 -0.58654,1.72725 -1.00447,2.4809 -0.97051,1.4673 -2.17991,2.79835 -3.04051,4.32368 0.17283,0.75347 0.99053,1.17512 1.47278,1.73395 1.23157,1.20474 2.6946,2.26777 3.57142,3.77591 0.39055,0.92297 -0.6305,1.60642 -1.10286,2.25637 -1.06476,1.33354 -2.30425,2.64134 -2.84829,4.28749 -0.069,0.75847 0.8165,1.14706 1.21186,1.67727 1.35817,1.32777 2.81053,2.56122 4.24221,3.79197 -1.24564,2.10535 -2.55636,4.18384 -4.13251,6.05931 -0.45047,0.47509 -0.32173,1.14616 0.0812,1.60632 2.78399,3.98502 6.23265,7.44764 9.18376,11.28667 0.17667,0.23925 0.53084,0.71696 -0.0264,0.59245 -5.17407,-0.18517 -10.38464,-0.58848 -15.56974,-0.86363 -5.8992,-0.4225 -11.8517,-0.77217 -17.68313,-1.58296 -0.51335,-0.0749 -1.15091,-0.25639 -1.10753,-0.89279 -0.9032,-5.8071 -1.09182,-11.75047 -1.90905,-17.59415 -0.0659,-0.96978 -1.06597,-1.43097 -1.93543,-1.39369 -3.82396,-0.10789 -7.67015,0.18661 -11.43401,0.86852 -0.5415,0.0804 -1.29633,0.33109 -1.1283,1.03447 0.0489,5.6379 0.53854,11.28257 0.67421,16.90209 -0.0846,0.80926 0.16598,1.85958 -0.46088,2.50215 -1.04856,0.32383 -2.08113,0.69974 -3.09149,1.13301 -2.98461,0.75238 -5.97489,1.48892 -8.94819,2.28347 -6.97499,1.77218 -13.95187,3.5619 -20.96227,5.20122 -0.55635,0.26077 -0.50463,-0.1599 -0.31651,-0.53288 0.86779,-2.09668 2.36364,-3.85271 3.34,-5.89505 1.48484,-2.44967 3.105,-4.83509 4.36811,-7.40834 -0.0321,-0.71672 -0.83446,-1.13801 -1.20032,-1.70788 -1.37184,-1.56982 -2.85792,-3.0904 -4.00681,-4.84064 0.68803,-1.62429 2.02939,-2.87401 3.11647,-4.23619 0.42918,-0.65847 1.37161,-1.24501 1.22564,-2.12305 -1.55417,-2.11501 -3.71391,-3.72525 -5.251,-5.85577 -0.18455,-0.43241 0.41221,-0.81456 0.57001,-1.19752 1.1661,-1.68345 2.54617,-3.22747 3.85284,-4.79405 0.0838,-0.70456 -0.87301,-1.07723 -1.2375,-1.62228 -1.48297,-1.49742 -2.99296,-2.95191 -4.40818,-4.51409 1.24335,-2.22292 3.25699,-3.89932 4.59061,-6.041 -0.0469,-0.81853 -0.80821,-1.46403 -1.31067,-2.08947 -2.3945,-2.66537 -5.06728,-5.07853 -7.34663,-7.84592 0.59974,-0.63507 1.61583,-0.5434 2.39796,-0.82709 6.81067,-1.79756 13.55111,-3.852 20.38003,-5.57406 3.21664,-0.78482 6.39654,-1.75323 9.65188,-2.36173 0.69828,-0.10908 0.60695,0.8537 0.73197,1.30429 0.40338,3.652 0.57957,7.33784 0.98809,10.9752 0.30805,2.84496 0.25765,5.75625 1.01409,8.53431 0.44754,0.5861 1.36427,0.19668 2.01409,0.23636 3.29896,-0.40099 6.56929,-0.77917 9.8917,-0.87717 0.83935,-0.13866 1.82863,0.0668 2.57119,-0.40557 0.49482,-0.76012 0.12429,-1.76256 0.17375,-2.61262 -0.31574,-5.81542 -0.97595,-11.62312 -0.97872,-17.42764 0.0316,-0.37245 -0.0381,-0.84861 0.0847,-1.18013 0.0797,-0.004 0.15949,-0.005 0.23925,-0.003 z"
       id="path9"
       transform="scale(0.26458333)" /><path
       style="fill:#ffffff;fill-opacity:1;stroke-width:0.119506"
       d="m 572.07469,508.60303 c -0.77543,0.22452 -0.29442,1.21269 -0.34263,1.77473 0.56353,6.6416 1.06302,13.28879 1.64902,19.92836 -4.53712,0.10602 -9.08939,-0.081 -13.6152,0.3105 -3.02911,0.2893 -5.93995,1.23325 -8.97764,1.30399 -0.71111,0.0265 -0.46911,-0.95891 -0.58983,-1.40652 -0.46194,-6.01161 -0.88127,-12.02917 -1.45063,-18.03086 -0.0493,-0.64165 -0.35229,-1.53787 -1.15491,-1.44247 -3.44278,0.29244 -6.72239,1.49866 -10.06305,2.30627 -4.6386,1.29965 -9.33344,2.42167 -13.91087,3.92645 -0.72258,0.33209 -0.1967,1.216 0.24344,1.55147 2.23049,2.37677 4.6798,4.58804 6.83235,7.01045 -1.25901,2.15632 -3.00839,3.99198 -4.29683,6.12185 -0.14485,0.89507 0.83121,1.45385 1.2969,2.08743 1.18277,1.35343 2.6532,2.50239 3.56829,4.06828 0.25541,0.79683 -0.54972,1.44489 -0.93749,2.05407 -1.05777,1.36534 -2.4013,2.5555 -3.20249,4.09672 -0.008,0.89785 0.94288,1.4353 1.43943,2.08201 1.21956,1.34009 2.7433,2.44204 3.65706,4.03238 0.30262,0.83092 -0.71527,1.37999 -1.07649,1.99878 -1.10286,1.4089 -2.35782,2.74257 -3.25935,4.28198 0.0156,0.66772 0.78891,1.10655 1.16162,1.64398 1.31476,1.55055 2.99528,2.8326 4.00375,4.6189 0.34207,0.83455 -0.61813,1.45187 -0.89352,2.15647 -1.16957,2.10147 -2.52335,4.09282 -3.75645,6.15617 -0.34746,1.02252 -1.58002,1.55683 -1.71486,2.65596 0.27354,0.77506 1.30603,0.42905 1.91659,0.39584 3.99604,-0.80094 7.91749,-1.9437 11.87502,-2.91457 3.99132,-1.05182 8.00846,-2.02235 11.97023,-3.17692 0.50839,-0.51862 0.13262,-1.36998 0.21707,-2.02342 -0.19043,-5.10944 -0.65041,-10.21364 -1.03383,-15.29972 0.0207,-0.96341 -0.18944,-2.02168 0.20732,-2.92581 1.22033,-0.98928 2.87688,-1.10581 4.35781,-1.43706 5.52521,-0.97022 11.17864,-1.08369 16.78393,-0.99996 0.43991,0.10937 1.29947,-0.15051 1.3148,0.5114 0.71107,4.53027 0.81916,9.12087 1.29018,13.6814 0.24192,1.88067 0.23835,3.83467 0.82287,5.64885 0.49646,0.8929 1.71954,0.66919 2.56703,0.88462 7.01149,0.75881 14.05702,1.22594 21.10579,1.44363 0.79998,-0.0686 1.71797,0.18059 2.44473,-0.22244 0.39918,-0.62307 -0.53624,-1.07667 -0.81973,-1.53653 -2.42394,-2.53674 -4.93262,-5.06109 -6.78637,-8.06078 -0.39196,-0.53864 0.34628,-1.03967 0.52794,-1.52444 0.91561,-1.83071 2.53069,-3.2608 3.1821,-5.22926 0.0615,-1.26175 -1.23728,-1.99983 -2.03533,-2.7715 -1.09613,-0.94404 -2.26691,-1.83467 -3.22478,-2.91575 1.32003,-2.19759 3.12742,-4.09873 4.37478,-6.35503 0.0707,-0.73165 -0.80477,-1.14494 -1.20502,-1.6769 -1.29562,-1.37055 -2.9018,-2.48878 -3.94328,-4.0792 -0.25403,-0.57223 0.45818,-1.00181 0.69066,-1.46184 1.187,-1.59468 2.55948,-3.07715 3.56299,-4.79563 0.18639,-0.92352 -0.88326,-1.43083 -1.41213,-2.00055 -1.28721,-1.19618 -2.9109,-2.17222 -3.74108,-3.76769 -0.0973,-0.67209 0.6029,-1.19333 0.87706,-1.76346 1.60741,-2.39715 3.52329,-4.61707 4.8585,-7.19152 0.35085,-0.65097 -0.46298,-0.94188 -0.96529,-0.96809 -7.65216,-1.18081 -15.40232,-1.60217 -23.07982,-2.54238 -0.44931,-0.0333 -0.85975,-0.17099 -1.31036,-0.21264 z m 2.85553,2.2391 c 6.27858,0.46725 12.55921,1.15931 18.79364,1.98141 0.28933,0.0453 0.80122,0.0173 0.54804,0.45024 -1.25334,2.27096 -2.91806,4.29149 -4.2233,6.5385 -0.72032,1.00308 -0.17068,2.26235 -0.21718,3.39358 0.81945,11.26775 1.34623,22.57581 2.95343,33.76796 0.5181,2.53741 2.52747,4.38044 4.07295,6.33505 0.54293,0.72272 1.31862,1.53933 1.62387,2.27868 -2.0606,0.21374 -4.13631,-0.13314 -6.20321,-0.13871 -4.68923,-0.27952 -9.39321,-0.32336 -13.96568,-1.40599 -1.10412,-1.22553 -0.714,-3.00109 -0.96292,-4.50022 -0.55592,-4.64386 -0.68066,-9.33857 -1.33462,-13.97474 -0.0768,-0.58588 -0.2266,-1.37944 -0.97742,-1.3842 -3.56861,-0.42845 -7.17982,-0.24302 -10.76668,-0.27358 -3.83737,-0.005 -7.65786,0.61664 -11.37405,1.5403 -0.97226,0.35587 -2.24651,0.45461 -2.86743,1.38458 -0.59172,1.47375 0.006,3.09593 0.0208,4.621 0.30009,5.02725 0.64772,10.06867 0.79328,15.10488 -2.53209,1.09822 -5.31633,1.53754 -7.98658,2.29338 -4.03139,1.04968 -8.06317,2.10227 -12.12605,3.02461 -0.27219,-0.38317 0.2544,-0.87441 0.36952,-1.25227 1.22334,-2.34106 2.92308,-4.45506 3.79566,-6.9677 0.38509,-1.8972 0.0126,-3.85559 -0.0506,-5.76991 -0.84754,-10.44377 -1.29987,-20.92439 -2.36234,-31.35265 -0.1777,-2.05799 -2.07303,-3.31035 -3.35083,-4.71628 -0.89407,-0.95716 -1.87237,-1.87055 -2.53552,-3.01167 1.12267,-0.89799 2.59923,-1.08513 3.91451,-1.60025 5.05933,-1.60171 10.26024,-2.8955 15.3882,-4.08139 0.62516,-0.25585 1.04146,0.36145 1.08092,0.9215 1.0813,6.13497 0.83676,12.47336 1.95246,18.63888 0.0361,0.57209 0.4233,1.12061 1.04988,1.05455 2.52907,-0.003 4.95806,-0.83166 7.44412,-1.09795 4.15827,-0.54882 8.37889,-0.46757 12.56946,-0.68981 1.5955,-0.10325 3.23117,-0.0361 4.79678,-0.3249 0.54082,-0.44155 0.0299,-1.32353 0.11185,-1.94005 -0.54472,-6.29085 -1.03404,-12.5814 -1.0867,-18.89912 0.37058,0.0174 0.74115,0.0349 1.11173,0.0523 z"
       id="path10"
       transform="scale(0.26458333)" /><path
       style="fill:#ffffff;fill-opacity:1;stroke-width:0.119506"
       d="m 586.15953,523.99847 c -0.91589,0.4853 -1.42781,1.50602 -2.11258,2.25683 -0.61312,0.89399 -1.4505,1.68101 -1.88501,2.66413 0.96092,1.2388 2.22696,2.25973 3.30833,3.41215 0.61945,0.50347 1.06536,1.27692 1.80006,1.60405 0.76242,-0.27771 0.20024,-1.27116 0.29293,-1.86657 -0.2683,-2.58276 -0.31013,-5.21308 -0.88953,-7.74989 -0.0728,-0.21216 -0.28636,-0.36153 -0.5142,-0.3207 z"
       id="path11"
       transform="scale(0.26458333)" /><path
       style="fill:#ffffff;fill-opacity:1;stroke-width:0.119506"
       d="m 587.20847,534.37397 c -0.67429,0.24081 -0.86007,1.09777 -1.36801,1.55964 -0.86866,1.20088 -2.16772,2.29251 -2.37307,3.83562 0.1476,0.99094 1.16287,1.55946 1.78091,2.26337 0.87471,0.78592 1.74811,1.58806 2.70965,2.265 0.83994,0.11987 0.49817,-0.96709 0.48549,-1.44877 -0.32973,-2.7134 -0.36449,-5.46524 -0.76114,-8.16536 -0.0755,-0.1917 -0.26414,-0.3252 -0.47383,-0.3095 z"
       id="path12"
       transform="scale(0.26458333)" /><path
       style="fill:#ffffff;fill-opacity:1;stroke-width:0.119506"
       d="m 587.78663,545.59722 c -1.3613,1.49294 -2.72045,3.05378 -3.68502,4.82609 0.0499,0.68736 0.876,1.09945 1.26317,1.65722 1.1254,1.08192 2.18223,2.31301 3.53918,3.10374 0.74584,0.14162 0.60434,-0.81741 0.56648,-1.27208 -0.23118,-2.71927 -0.46153,-5.45146 -0.99782,-8.13034 -0.10219,-0.29451 -0.45333,-0.39998 -0.68599,-0.18463 z"
       id="path13"
       transform="scale(0.26458333)" /><path
       style="fill:#ffffff;fill-opacity:1;stroke-width:0.119506"
       d="m 537.39312,549.45968 c -0.55725,0.43519 -0.0461,1.19294 -0.1379,1.7939 0.20951,2.69653 0.29866,5.42307 0.81479,8.08677 0.43685,0.65106 1.08458,-0.1863 1.41412,-0.51871 1.17317,-1.27402 2.31452,-2.61068 3.31964,-4.00682 0.0501,-0.69576 -0.87028,-1.06664 -1.23037,-1.61247 -1.29277,-1.23694 -2.43461,-2.66704 -3.87101,-3.73707 -0.0986,-0.0542 -0.20598,-0.007 -0.30927,-0.006 z"
       id="path14"
       transform="scale(0.26458333)" /><path
       style="fill:#ffffff;fill-opacity:1;stroke-width:0.119506"
       d="m 536.68753,538.94249 c -0.22698,1.66253 0.0258,3.38611 0.0654,5.07014 0.15425,1.6054 0.0617,3.26792 0.44641,4.83505 0.62157,0.53992 1.01952,-0.55104 1.40787,-0.89465 1.0081,-1.42279 2.35926,-2.72839 2.78393,-4.46933 0.0397,-1.04115 -0.93141,-1.75475 -1.53994,-2.48218 -0.90596,-0.79786 -1.82522,-1.67725 -2.90067,-2.20398 -0.0877,0.0483 -0.17537,0.0966 -0.26305,0.14495 z"
       id="path15"
       transform="scale(0.26458333)" /><path
       style="fill:#ffffff;fill-opacity:1;stroke-width:0.119506"
       d="m 536.50056,528.23485 c -0.72992,0.21705 -0.43139,1.19809 -0.51876,1.76947 0.0471,2.41224 0.14612,4.86061 0.59496,7.22375 0.47185,0.62987 1.01974,-0.33355 1.41155,-0.64581 1.16031,-1.259 2.37714,-2.5147 3.2956,-3.95345 0.0264,-0.69533 -0.89784,-1.04149 -1.27175,-1.57761 -1.07323,-0.95469 -2.01505,-2.14568 -3.3132,-2.79838 -0.0646,-0.0167 -0.13172,-0.0245 -0.1984,-0.018 z"
       id="path16"
       transform="scale(0.26458333)" /><path
       style="fill:#ffffff;fill-opacity:1;stroke-width:0.119506"
       d="m 549.76427,432.33378 c -0.79716,-0.15984 -1.57289,0.60368 -1.27278,1.39952 0.12464,0.93849 1.03775,1.37182 1.88499,1.46399 3.71076,0.59191 7.45558,0.9847 11.11133,1.84962 2.63206,0.53888 5.20344,1.31573 7.76286,2.11176 0.90754,0.2881 2.21461,-0.22829 2.09135,-1.33487 -0.27718,-1.37267 -1.88538,-1.70775 -3.00306,-2.13403 -5.10817,-1.56827 -10.38004,-2.61387 -15.68744,-3.21756 -0.9594,-0.094 -1.9235,-0.13352 -2.88725,-0.13843 z"
       id="path17"
       transform="scale(0.26458333)" /><path
       style="fill:#ffffff;fill-opacity:1;stroke-width:0.119506"
       d="m 557.03754,427.10448 c -1.56281,0.0884 -3.23576,-0.0366 -4.69129,0.62087 -1.0008,0.58446 -0.64972,2.3519 0.54174,2.43493 3.12889,0.36875 6.29685,-0.034 9.41969,0.38442 2.18919,0.31162 4.17307,1.32803 5.96447,2.58679 0.60796,0.36019 1.522,1.1361 2.1479,0.37844 0.82638,-1.06073 -0.14774,-2.37141 -0.98615,-3.08217 -2.64429,-2.27232 -6.18813,-3.17936 -9.61307,-3.26558 -0.92683,-0.0489 -1.85523,-0.0675 -2.78329,-0.0577 z"
       id="path18"
       transform="scale(0.26458333)" /><path
       style="fill:#ffffff;fill-opacity:1;stroke-width:0.119506"
       d="m 592.2095,440.81517 c -0.85606,-0.0758 -1.87534,0.44271 -1.82829,1.4154 -0.0965,0.94292 0.77684,1.69203 1.68964,1.63876 3.4836,0.33537 6.74019,1.80771 9.65031,3.6804 1.1832,0.76929 2.35387,2.0067 3.87529,1.90788 1.0369,-0.20416 0.87397,-1.60636 0.28056,-2.19941 -2.05872,-2.2991 -4.93541,-3.6475 -7.71044,-4.87872 -1.90059,-0.75253 -3.88808,-1.52371 -5.95707,-1.56431 z"
       id="path19"
       transform="scale(0.26458333)" /><path
       style="fill:#ffffff;fill-opacity:1;stroke-width:0.119506"
       d="m 588.07489,444.21081 c -1.0148,0.14767 -1.44542,1.71902 -0.49693,2.27901 2.0069,1.35925 4.40443,1.98415 6.57894,3.00503 3.63052,1.6188 7.2948,3.21474 10.65436,5.36432 0.7307,0.58655 1.70694,1.61856 2.70615,0.98919 0.75287,-0.62838 0.64529,-1.91387 -0.15802,-2.46364 -2.26642,-2.08046 -5.1042,-3.4005 -7.81314,-4.79936 -3.57768,-1.71268 -7.25299,-3.28297 -11.08083,-4.33962 -0.12847,-0.0242 -0.25958,-0.0405 -0.39053,-0.0349 z"
       id="path20"
       transform="scale(0.26458333)" /><path
       style="fill:#ffffff;fill-opacity:1;stroke-width:0.119506"
       d="m 517.14207,430.61169 c -2.74644,0.0718 -5.54308,0.17068 -8.20176,0.91917 -0.85356,0.19888 -1.81932,1.01949 -1.35681,1.97067 0.36516,0.94993 1.53846,0.89094 2.35985,0.73758 4.09993,-0.50658 8.22395,-0.95554 12.32877,-0.16671 2.35067,0.342 4.63112,1.07282 6.97595,1.41684 1.27902,0.009 1.50226,-1.95286 0.45048,-2.4732 -2.30894,-1.16442 -4.92242,-1.53022 -7.44247,-1.98737 -1.69059,-0.28424 -3.39839,-0.44797 -5.11401,-0.41698 z"
       id="path21"
       transform="scale(0.26458333)" /><path
       style="fill:#ffffff;fill-opacity:1;stroke-width:0.119506"
       d="m 515.92905,425.34855 c -2.01511,0.0856 -4.10605,-0.0707 -6.05277,0.53941 -1.0506,0.36124 -1.40954,1.85616 -0.51047,2.5738 0.99672,0.68619 2.31445,0.26707 3.41921,0.12347 2.51896,-0.28908 5.0695,-0.18082 7.5837,-0.092 1.93296,0.0487 3.66428,0.83477 5.5192,1.24874 1.08346,0.27844 1.75248,-1.18317 1.11966,-1.97534 -1.11256,-1.42848 -3.07032,-1.71399 -4.72957,-2.09182 -2.09183,-0.38118 -4.2323,-0.3219 -6.34896,-0.3263 z"
       id="path22"
       transform="scale(0.26458333)" /><path
       style="fill:#ffffff;fill-opacity:1;stroke-width:0.119506"
       d="m 648.50499,385.17276 c -1.091,0.23846 -1.55987,1.82061 -0.74784,2.62002 1.83858,1.80363 4.34441,2.71481 6.73876,3.52914 2.81548,0.90744 5.7558,1.63963 8.4193,2.83546 0.59457,0.6182 1.65216,1.22189 2.42209,0.53007 0.84789,-0.65937 0.52786,-1.94767 -0.22758,-2.54509 -1.83767,-1.61417 -4.35392,-2.04864 -6.62003,-2.761 -3.26015,-0.90718 -6.57392,-1.82777 -9.27117,-3.95722 -0.21219,-0.13722 -0.45222,-0.26801 -0.71353,-0.25138 z"
       id="path23"
       transform="scale(0.26458333)" /><path
       style="fill:#ffffff;fill-opacity:1;stroke-width:0.119506"
       d="m 641.68898,412.98206 c -0.65478,0.0747 -1.30468,0.63729 -1.46675,1.27161 0.086,1.15079 1.43414,1.51912 2.29442,1.96508 3.22505,1.23135 6.33283,2.73282 9.43194,4.24606 0.7613,0.24778 1.58021,0.91377 2.40587,0.61352 0.94304,-0.47938 0.78197,-1.81972 0.0292,-2.39408 -1.75096,-1.47846 -3.96278,-2.25557 -6.00115,-3.24789 -2.12132,-0.88194 -4.20849,-1.94355 -6.45987,-2.44403 -0.0776,-0.008 -0.15564,-0.0121 -0.23364,-0.0103 z"
       id="path24"
       transform="scale(0.26458333)" /><path
       style="fill:#ffffff;fill-opacity:1;stroke-width:0.119506"
       d="m 637.33193,415.48071 c -0.90641,0.11161 -1.07614,1.41317 -0.41734,1.9443 1.6156,1.46943 3.78869,2.09488 5.68469,3.10978 3.34815,1.52602 6.58249,3.3331 10.05176,4.57591 0.78142,0.30032 2.09703,0.35932 2.31845,-0.67572 -0.1345,-0.96095 -1.17522,-1.46168 -1.90393,-1.96701 -3.95503,-2.25858 -8.10506,-4.16875 -12.29622,-5.94464 -1.11654,-0.41653 -2.23748,-0.94057 -3.43741,-1.04262 z"
       id="path25"
       transform="scale(0.26458333)" /><path
       style="fill:#ffffff;fill-opacity:1;stroke-width:0.119506"
       d="m 623.41187,447.51938 c -0.95548,0.07 -1.54348,1.46507 -0.74341,2.12053 1.72965,1.49066 3.96768,2.22875 5.91104,3.35988 3.2976,1.81689 6.60633,3.66182 9.63565,5.90529 0.65609,0.72707 1.15509,1.74366 2.15273,2.06591 1.03583,-0.13315 1.91918,-1.42204 1.39485,-2.42372 -0.95727,-1.80548 -2.82743,-2.86844 -4.4548,-3.99775 -4.07379,-2.54371 -8.35481,-4.75571 -12.72318,-6.74584 -0.37366,-0.16079 -0.76094,-0.29067 -1.17288,-0.2843 z"
       id="path26"
       transform="scale(0.26458333)" /></g></svg>
